<svg width="375" height="414" viewBox="0 0 375 414" fill="none" xmlns="http://www.w3.org/2000/svg">
<g clip-path="url(#clip0_642_267)">
<path d="M374.758 316.628H0V316.835H374.758V316.628Z" fill="#EBEBEB"/>
<path d="M337.208 329.95H312.384V330.157H337.208V329.95Z" fill="#EBEBEB"/>
<path d="M248.255 332.202H241.742V332.41H248.255V332.202Z" fill="#EBEBEB"/>
<path d="M311.634 322.266H297.251V322.473H311.634V322.266Z" fill="#EBEBEB"/>
<path d="M71.6913 323.657H39.3197V323.864H71.6913V323.657Z" fill="#EBEBEB"/>
<path d="M83.1138 323.657H78.3694V323.864H83.1138V323.657Z" fill="#EBEBEB"/>
<path d="M168.754 327.151H98.5389V327.359H168.754V327.151Z" fill="#EBEBEB"/>
<path d="M177.636 279.698H32.9113C31.7775 279.696 30.6909 279.197 29.8899 278.31C29.0889 277.424 28.639 276.223 28.639 274.97V50.2265C28.6489 48.9812 29.1031 47.7905 29.9031 46.913C30.703 46.0355 31.784 45.5421 32.9113 45.54H177.636C178.771 45.54 179.859 46.0381 180.662 46.9247C181.464 47.8114 181.915 49.0139 181.915 50.2679V274.97C181.915 276.224 181.464 277.427 180.662 278.313C179.859 279.2 178.771 279.698 177.636 279.698ZM32.9113 45.7056C31.8272 45.7078 30.7882 46.185 30.0224 47.0326C29.2565 47.8802 28.8264 49.0289 28.8264 50.2265V274.97C28.8264 276.168 29.2565 277.316 30.0224 278.164C30.7882 279.012 31.8272 279.489 32.9113 279.491H177.636C178.72 279.489 179.76 279.012 180.527 278.164C181.294 277.317 181.726 276.168 181.728 274.97V50.2265C181.726 49.0281 181.294 47.8795 180.527 47.0321C179.76 46.1848 178.72 45.7078 177.636 45.7056H32.9113Z" fill="#EBEBEB"/>
<path d="M339.763 279.698H195.032C193.897 279.696 192.81 279.197 192.008 278.311C191.205 277.425 190.754 276.223 190.752 274.97V50.2265C190.764 48.9804 191.22 47.7897 192.021 46.9125C192.822 46.0352 193.904 45.5421 195.032 45.54H339.763C340.889 45.5443 341.968 46.0386 342.767 46.9159C343.565 47.7931 344.018 48.9826 344.028 50.2265V274.97C344.028 276.221 343.579 277.421 342.78 278.307C341.981 279.194 340.896 279.694 339.763 279.698ZM195.032 45.7056C193.947 45.7078 192.907 46.1848 192.14 47.0321C191.373 47.8795 190.941 49.0281 190.939 50.2265V274.97C190.941 276.168 191.373 277.317 192.14 278.164C192.907 279.012 193.947 279.489 195.032 279.491H339.763C340.848 279.489 341.888 279.012 342.655 278.164C343.422 277.317 343.854 276.168 343.856 274.97V50.2265C343.854 49.0281 343.422 47.8795 342.655 47.0321C341.888 46.1848 340.848 45.7078 339.763 45.7056H195.032Z" fill="#EBEBEB"/>
<path d="M269.084 196.658H252.369V204.516H269.084V196.658Z" fill="#FAFAFA"/>
<path d="M248.862 196.658H232.148V204.516H248.862V196.658Z" fill="#FAFAFA"/>
<path d="M228.64 196.658H211.926V204.516H228.64V196.658Z" fill="#FAFAFA"/>
<path d="M279.195 207.596H262.48V215.454H279.195V207.596Z" fill="#FAFAFA"/>
<path d="M258.973 207.596H242.258V215.454H258.973V207.596Z" fill="#FAFAFA"/>
<path d="M238.751 207.596H222.037V215.454H238.751V207.596Z" fill="#FAFAFA"/>
<path d="M218.529 207.596H201.815V215.454H218.529V207.596Z" fill="#FAFAFA"/>
<path d="M311.791 218.534H295.077V226.392H311.791V218.534Z" fill="#FAFAFA"/>
<path d="M291.569 218.534H274.855V226.392H291.569V218.534Z" fill="#FAFAFA"/>
<path d="M248.862 218.534H232.148V226.392H248.862V218.534Z" fill="#FAFAFA"/>
<path d="M228.64 218.534H211.926V226.392H228.64V218.534Z" fill="#FAFAFA"/>
<path d="M208.418 218.534H191.704V226.392H208.418V218.534Z" fill="#FAFAFA"/>
<path d="M301.68 229.464H284.966V237.321H301.68V229.464Z" fill="#FAFAFA"/>
<path d="M258.973 229.464H242.258V237.321H258.973V229.464Z" fill="#FAFAFA"/>
<path d="M238.751 229.464H222.037V237.321H238.751V229.464Z" fill="#FAFAFA"/>
<path d="M218.529 229.464H201.815V237.321H218.529V229.464Z" fill="#FAFAFA"/>
<path d="M139.642 85.2509H122.928V93.1086H139.642V85.2509Z" fill="#FAFAFA"/>
<path d="M119.42 85.2509H102.706V93.1086H119.42V85.2509Z" fill="#FAFAFA"/>
<path d="M149.754 96.1887H133.039V104.046H149.754V96.1887Z" fill="#FAFAFA"/>
<path d="M129.531 96.1887H112.817V104.046H129.531V96.1887Z" fill="#FAFAFA"/>
<path d="M89.0875 96.1887H72.3733V104.046H89.0875V96.1887Z" fill="#FAFAFA"/>
<path d="M68.8656 96.1887H52.1514V104.046H68.8656V96.1887Z" fill="#FAFAFA"/>
<path d="M119.42 107.127H102.706V114.984H119.42V107.127Z" fill="#FAFAFA"/>
<path d="M303.509 149.255H286.795V157.113H303.509V149.255Z" fill="#FAFAFA"/>
<path d="M268.297 149.255H251.583V157.113H268.297V149.255Z" fill="#FAFAFA"/>
<path d="M313.628 160.193H296.914V168.051H313.628V160.193Z" fill="#FAFAFA"/>
<path d="M293.398 160.193H276.684V168.051H293.398V160.193Z" fill="#FAFAFA"/>
<path d="M120.852 138.226H104.138V146.084H120.852V138.226Z" fill="#FAFAFA"/>
<path d="M78.1371 138.226H61.4229V146.084H78.1371V138.226Z" fill="#FAFAFA"/>
<path d="M130.963 149.156H114.249V157.014H130.963V149.156Z" fill="#FAFAFA"/>
<path d="M103.238 149.156H86.5242V157.014H103.238V149.156Z" fill="#FAFAFA"/>
<path d="M303.509 171.131H286.795V178.989H303.509V171.131Z" fill="#FAFAFA"/>
<path d="M268.297 171.131H251.583V178.989H268.297V171.131Z" fill="#FAFAFA"/>
<path d="M78.9767 107.127H62.2625V114.984H78.9767V107.127Z" fill="#FAFAFA"/>
<path d="M315.764 85.549H299.05V93.4067H315.764V85.549Z" fill="#FAFAFA"/>
<path d="M295.542 85.549H278.828V93.4067H295.542V85.549Z" fill="#FAFAFA"/>
<path d="M305.653 96.4786H288.939V104.336H305.653V96.4786Z" fill="#FAFAFA"/>
<path d="M225.17 85.7228H208.455V93.5805H225.17V85.7228Z" fill="#FAFAFA"/>
<path d="M204.948 85.7228H188.234V93.5805H204.948V85.7228Z" fill="#FAFAFA"/>
<path d="M235.281 96.6525H218.566V104.51H235.281V96.6525Z" fill="#FAFAFA"/>
<path d="M215.059 96.6525H198.344V104.51H215.059V96.6525Z" fill="#FAFAFA"/>
<path d="M194.837 96.6525H178.123V104.51H194.837V96.6525Z" fill="#FAFAFA"/>
<path d="M245.392 107.59H228.678V115.448H245.392V107.59Z" fill="#FAFAFA"/>
<path d="M225.17 107.59H208.455V115.448H225.17V107.59Z" fill="#FAFAFA"/>
<path d="M204.948 107.59H188.234V115.448H204.948V107.59Z" fill="#FAFAFA"/>
<path d="M235.281 118.528H218.566V126.386H235.281V118.528Z" fill="#FAFAFA"/>
<path d="M215.059 118.528H198.344V126.386H215.059V118.528Z" fill="#FAFAFA"/>
<path d="M99.356 193.694H82.6417V201.552H99.356V193.694Z" fill="#FAFAFA"/>
<path d="M79.1265 193.694H62.4122V201.552H79.1265V193.694Z" fill="#FAFAFA"/>
<path d="M157.413 194.688H140.699V202.545H157.413V194.688Z" fill="#FAFAFA"/>
<path d="M109.467 204.624H92.7527V212.481H109.467V204.624Z" fill="#FAFAFA"/>
<path d="M89.2374 204.624H72.5232V212.481H89.2374V204.624Z" fill="#FAFAFA"/>
<path d="M167.524 205.626H150.81V213.483H167.524V205.626Z" fill="#FAFAFA"/>
<path d="M147.295 205.626H130.581V213.483H147.295V205.626Z" fill="#FAFAFA"/>
<path d="M200.96 170.27H184.246V178.127H200.96V170.27Z" fill="#FAFAFA"/>
<path d="M96.1105 165.07H79.3962V172.928H96.1105V165.07Z" fill="#FAFAFA"/>
<path d="M178.168 131.495H161.453V139.352H178.168V131.495Z" fill="#FAFAFA"/>
<path d="M190.849 159.34H174.135V167.198H190.849V159.34Z" fill="#FAFAFA"/>
<path d="M211.072 159.34H194.357V167.198H211.072V159.34Z" fill="#FAFAFA"/>
<path d="M286.99 308.62H270.276V316.478H286.99V308.62Z" fill="#FAFAFA"/>
<path d="M297.101 297.691H280.387V305.548H297.101V297.691Z" fill="#FAFAFA"/>
<path d="M99.356 215.562H82.6417V223.419H99.356V215.562Z" fill="#FAFAFA"/>
<path d="M79.1265 215.562H62.4122V223.419H79.1265V215.562Z" fill="#FAFAFA"/>
<path d="M109.467 226.499H92.7527V234.357H109.467V226.499Z" fill="#FAFAFA"/>
<path d="M89.2374 226.499H72.5232V234.357H89.2374V226.499Z" fill="#FAFAFA"/>
<path d="M131.09 256.746H114.376V264.604H131.09V256.746Z" fill="#FAFAFA"/>
<path d="M110.868 256.746H94.1542V264.604H110.868V256.746Z" fill="#FAFAFA"/>
<path d="M90.6392 256.746H73.9249V264.604H90.6392V256.746Z" fill="#FAFAFA"/>
<path d="M70.417 256.746H53.7028V264.604H70.417V256.746Z" fill="#FAFAFA"/>
<path d="M141.201 267.684H124.487V275.542H141.201V267.684Z" fill="#FAFAFA"/>
<path d="M120.98 267.684H104.265V275.542H120.98V267.684Z" fill="#FAFAFA"/>
<path d="M80.5281 267.684H63.8138V275.542H80.5281V267.684Z" fill="#FAFAFA"/>
<path d="M151.312 278.613H134.598V286.471H151.312V278.613Z" fill="#FAFAFA"/>
<path d="M131.09 278.613H114.376V286.471H131.09V278.613Z" fill="#FAFAFA"/>
<path d="M110.868 278.613H94.1542V286.471H110.868V278.613Z" fill="#FAFAFA"/>
<path d="M141.201 289.552H124.487V297.41H141.201V289.552Z" fill="#FAFAFA"/>
<path d="M120.98 289.552H104.265V297.41H120.98V289.552Z" fill="#FAFAFA"/>
<path d="M100.758 289.552H84.0433V297.41H100.758V289.552Z" fill="#FAFAFA"/>
<path d="M267.9 256.241H251.186V264.099H267.9V256.241Z" fill="#FAFAFA"/>
<path d="M225.192 256.241H208.478V264.099H225.192V256.241Z" fill="#FAFAFA"/>
<path d="M204.97 256.241H188.256V264.099H204.97V256.241Z" fill="#FAFAFA"/>
<path d="M278.018 267.179H261.304V275.037H278.018V267.179Z" fill="#FAFAFA"/>
<path d="M235.303 267.179H218.589V275.037H235.303V267.179Z" fill="#FAFAFA"/>
<path d="M215.081 267.179H198.367V275.037H215.081V267.179Z" fill="#FAFAFA"/>
<path d="M194.859 267.179H178.145V275.037H194.859V267.179Z" fill="#FAFAFA"/>
<path d="M288.129 278.108H271.415V285.966H288.129V278.108Z" fill="#FAFAFA"/>
<path d="M267.9 278.108H251.186V285.966H267.9V278.108Z" fill="#FAFAFA"/>
<path d="M225.192 278.108H208.478V285.966H225.192V278.108Z" fill="#FAFAFA"/>
<path d="M204.97 278.108H188.256V285.966H204.97V278.108Z" fill="#FAFAFA"/>
<path d="M255.525 289.047H238.811V296.905H255.525V289.047Z" fill="#FAFAFA"/>
<path d="M235.303 289.047H218.589V296.905H235.303V289.047Z" fill="#FAFAFA"/>
<path d="M215.081 289.047H198.367V296.905H215.081V289.047Z" fill="#FAFAFA"/>
<path d="M194.859 289.047H178.145V296.905H194.859V289.047Z" fill="#FAFAFA"/>
<path d="M231.623 219.66H303.817V128.439H231.623V219.66Z" fill="#E0E0E0"/>
<path d="M231.758 219.66H301.171V128.439H231.758V219.66Z" fill="#E0E0E0"/>
<path d="M229.367 219.66H301.56V128.439H229.367V219.66Z" fill="#F0F0F0"/>
<path d="M232.65 215.462H298.412V131.337H232.65V215.462Z" fill="white"/>
<path d="M232.65 215.462H234.704V131.337H232.65V215.462Z" fill="#E0E0E0"/>
<path d="M234.486 191.839V194.108H298.6V191.839H234.486Z" fill="#E0E0E0"/>
<path d="M232.65 191.831H299.514V188.022H232.65V191.831Z" fill="#F0F0F0"/>
<path d="M79.374 219.66H151.567V128.439H79.374L79.374 219.66Z" fill="#E0E0E0"/>
<path d="M79.5162 219.66H148.929V128.439H79.5162L79.5162 219.66Z" fill="#E0E0E0"/>
<path d="M77.1253 219.66H149.319V128.439H77.1253L77.1253 219.66Z" fill="#F0F0F0"/>
<path d="M80.4008 215.462H146.163V131.337H80.4008L80.4008 215.462Z" fill="white"/>
<path d="M80.4008 215.462H82.4545L82.4545 131.337H80.4008L80.4008 215.462Z" fill="#E0E0E0"/>
<path d="M82.2371 191.831V194.1H146.351V191.831H82.2371Z" fill="#E0E0E0"/>
<path d="M80.4007 191.831H147.265V188.022H80.4007V191.831Z" fill="#F0F0F0"/>
<path d="M187.379 354.019C267.639 354.019 332.703 349.823 332.703 344.647C332.703 339.47 267.639 335.274 187.379 335.274C107.119 335.274 42.0553 339.47 42.0553 344.647C42.0553 349.823 107.119 354.019 187.379 354.019Z" fill="#F5F5F5"/>
<path d="M66.9918 323.259C66.9918 323.259 65.9575 314.839 61.0781 313.919C56.1988 313 57.6678 308.951 56.4011 307.345C55.1345 305.739 51.8141 310.417 54.6548 314.93C57.4954 319.442 55.1719 318.018 56.4011 322.208C57.6303 326.397 67.4565 330.248 66.9918 323.259Z" fill="#263238"/>
<path opacity="0.2" d="M66.9918 323.259C66.9918 323.259 65.9575 314.839 61.0781 313.919C56.1988 313 57.6678 308.951 56.4011 307.345C55.1345 305.739 51.8141 310.417 54.6548 314.93C57.4954 319.442 55.1719 318.018 56.4011 322.208C57.6303 326.397 67.4565 330.248 66.9918 323.259Z" fill="white"/>
<path d="M66.7894 329.105C66.7257 329.106 66.6631 329.087 66.6087 329.05C66.5543 329.014 66.5104 328.961 66.4821 328.898C66.4821 328.807 62.7345 320.046 64.6833 306.086C65.3142 302.093 66.319 298.183 67.6813 294.42C70.0423 287.316 71.9011 281.702 67.6439 271.451C66.2947 268.205 64.9156 265.183 63.5815 262.26C58.5747 251.281 54.6248 242.612 57.5853 233.827C57.6172 233.735 57.6809 233.66 57.7624 233.62C57.8439 233.58 57.9366 233.577 58.0201 233.612C58.0624 233.626 58.1015 233.65 58.135 233.683C58.1684 233.715 58.1955 233.754 58.2145 233.799C58.2335 233.843 58.244 233.891 58.2454 233.94C58.2467 233.989 58.2389 234.038 58.2224 234.083C55.3818 242.562 59.2793 251.107 64.2186 261.921C65.5527 264.852 66.9318 267.882 68.2884 271.136C72.6656 281.669 70.6644 287.696 68.3484 294.676C66.9831 298.391 65.9781 302.254 65.3503 306.202C63.4241 319.914 67.0592 328.484 67.0967 328.558C67.1354 328.647 67.1405 328.749 67.111 328.843C67.0815 328.936 67.0197 329.012 66.9393 329.055C66.8932 329.084 66.8421 329.1 66.7894 329.105Z" fill="#263238"/>
<path d="M63.9787 327.06C63.9787 327.06 60.8232 321.81 65.3728 319.111C69.9224 316.412 70.8368 318.589 73.6175 316.627C76.3982 314.665 78.5643 310.003 79.044 312.992C79.5237 315.981 76.2783 317.72 77.425 319.094C78.5718 320.469 69.8025 329.411 63.9787 327.06Z" fill="#263238"/>
<path d="M56.536 238.339C56.536 238.339 53.4705 228.031 60.456 227.816C67.4415 227.6 59.7364 237.238 56.536 238.339Z" fill="#263238"/>
<path d="M62.6071 246.272C62.6071 246.272 64.6907 236.89 69.645 238.869C74.5993 240.848 67.5464 246.446 62.6071 246.272Z" fill="#263238"/>
<path d="M54.1975 247.083C54.1975 247.083 54.9471 239.631 49.7004 239.449C44.4538 239.267 46.7623 245.916 54.1975 247.083Z" fill="#263238"/>
<path d="M57.7128 262.343C57.7128 262.343 50.6523 255.388 48.1115 260.563C45.5706 265.738 53.4255 266.814 57.7128 262.343Z" fill="#263238"/>
<path d="M70.1847 261.109C70.1847 261.109 71.5113 249.517 77.2152 253.185C82.919 256.853 75.154 262.269 70.1847 261.109Z" fill="#263238"/>
<path d="M75.2066 277.645C75.2066 277.645 70.9943 265.978 78.8192 267.295C86.6442 268.611 80.7305 274.813 75.2066 277.645Z" fill="#263238"/>
<path d="M63.1992 281.809C63.1992 281.809 56.596 273.24 51.5443 275.939C46.4925 278.638 50.6224 287.208 63.1992 281.809Z" fill="#263238"/>
<path d="M69.1954 300.862C69.1954 300.862 74.8243 287.051 79.8311 291.704C84.8378 296.358 76.6381 303.313 69.1954 300.862Z" fill="#263238"/>
<path d="M61.0182 300.05C61.0182 300.05 62.5173 289.336 56.9333 290.197C51.3494 291.058 52.826 297.616 61.0182 300.05Z" fill="#263238"/>
<g opacity="0.2">
<path d="M56.536 238.339C56.536 238.339 53.4705 228.031 60.456 227.816C67.4415 227.6 59.7364 237.238 56.536 238.339Z" fill="white"/>
<path d="M62.6071 246.272C62.6071 246.272 64.6907 236.89 69.645 238.869C74.5993 240.848 67.5464 246.446 62.6071 246.272Z" fill="white"/>
<path d="M54.1975 247.083C54.1975 247.083 54.9471 239.631 49.7004 239.449C44.4538 239.267 46.7623 245.916 54.1975 247.083Z" fill="white"/>
<path d="M57.7128 262.343C57.7128 262.343 50.6523 255.388 48.1115 260.563C45.5706 265.738 53.4255 266.814 57.7128 262.343Z" fill="white"/>
<path d="M70.1847 261.109C70.1847 261.109 71.5113 249.517 77.2152 253.185C82.919 256.853 75.154 262.269 70.1847 261.109Z" fill="white"/>
<path d="M75.2066 277.645C75.2066 277.645 70.9943 265.978 78.8192 267.295C86.6442 268.611 80.7305 274.813 75.2066 277.645Z" fill="white"/>
<path d="M63.1992 281.809C63.1992 281.809 56.596 273.24 51.5443 275.939C46.4925 278.638 50.6224 287.208 63.1992 281.809Z" fill="white"/>
<path d="M69.1954 300.862C69.1954 300.862 74.8243 287.051 79.8311 291.704C84.8378 296.358 76.6381 303.313 69.1954 300.862Z" fill="white"/>
<path d="M61.0182 300.05C61.0182 300.05 62.5173 289.336 56.9333 290.197C51.3494 291.058 52.826 297.616 61.0182 300.05Z" fill="white"/>
</g>
<path d="M59.564 252.473C59.507 252.473 59.4506 252.459 59.3991 252.432C55.2618 249.873 52.2862 245.038 52.1663 244.839C52.1409 244.799 52.123 244.753 52.1137 244.704C52.1045 244.656 52.104 244.606 52.1124 244.558C52.1208 244.509 52.1378 244.463 52.1625 244.422C52.1872 244.38 52.2191 244.345 52.2562 244.318C52.3312 244.263 52.4224 244.243 52.5106 244.261C52.5988 244.28 52.6769 244.336 52.7284 244.417C54.5248 247.26 56.7998 249.694 59.4291 251.587C60.0587 250.296 62.3297 245.841 64.226 244.583C64.3026 244.531 64.3945 244.515 64.4817 244.538C64.5248 244.55 64.5655 244.571 64.6013 244.6C64.6372 244.628 64.6676 244.665 64.6907 244.707C64.7138 244.749 64.7293 244.795 64.7362 244.844C64.743 244.892 64.7412 244.941 64.7307 244.989C64.7203 245.037 64.7015 245.082 64.6753 245.121C64.6492 245.161 64.6162 245.195 64.5783 245.22C62.5621 246.553 59.8863 252.217 59.8638 252.275C59.8428 252.318 59.814 252.357 59.7793 252.388C59.7445 252.42 59.7045 252.443 59.6615 252.457C59.6304 252.47 59.5972 252.475 59.564 252.473Z" fill="#263238"/>
<path d="M65.9574 266.806C65.8842 266.808 65.8126 266.782 65.755 266.732C59.8713 261.822 52.3537 262.028 52.2637 262.028C52.1746 262.027 52.0892 261.989 52.0241 261.921C51.959 261.854 51.9189 261.762 51.9115 261.664C51.9105 261.615 51.9182 261.567 51.9342 261.521C51.9503 261.475 51.9743 261.434 52.0049 261.398C52.0355 261.363 52.0722 261.335 52.1127 261.315C52.1533 261.295 52.1969 261.284 52.2412 261.283C52.3162 261.283 59.8189 261.068 65.845 265.887C66.632 264.504 69.6525 259.478 73.535 256.953C73.6126 256.902 73.7051 256.888 73.7922 256.913C73.8794 256.938 73.954 257 73.9997 257.085C74.0455 257.171 74.0585 257.273 74.036 257.369C74.0135 257.466 73.9573 257.548 73.8798 257.599C69.6001 260.381 66.2647 266.558 66.2347 266.624C66.21 266.668 66.1773 266.707 66.1386 266.737C66.1 266.767 66.0561 266.787 66.0099 266.798L65.9574 266.806Z" fill="#263238"/>
<path d="M70.0424 285.742C69.9819 285.743 69.9225 285.726 69.87 285.693C69.7875 285.635 61.1906 280.178 54.9771 280.046C54.8953 280.032 54.8206 279.987 54.7667 279.918C54.7127 279.849 54.683 279.76 54.683 279.669C54.683 279.578 54.7127 279.489 54.7667 279.42C54.8206 279.351 54.8953 279.306 54.9771 279.292C60.8982 279.425 68.6108 284.053 69.9674 284.914C73.9548 281.197 77.1253 272.08 77.1553 271.989C77.1694 271.941 77.1922 271.897 77.2223 271.859C77.2524 271.821 77.2892 271.79 77.3305 271.768C77.3717 271.747 77.4165 271.734 77.4622 271.732C77.5078 271.73 77.5534 271.738 77.5961 271.756C77.6388 271.774 77.6778 271.802 77.7106 271.837C77.7435 271.872 77.7695 271.914 77.7871 271.961C77.8048 272.007 77.8137 272.057 77.8133 272.108C77.8129 272.158 77.8032 272.208 77.7849 272.254C77.65 272.643 74.427 281.925 70.2147 285.66C70.1649 285.704 70.1054 285.732 70.0424 285.742Z" fill="#263238"/>
<path d="M65.0655 305.317C65.0053 305.316 64.9461 305.299 64.8932 305.267C61.6478 303.213 57.4505 294.23 57.2781 293.849C57.2363 293.761 57.2279 293.658 57.2546 293.564C57.2813 293.469 57.341 293.39 57.4205 293.344C57.5 293.298 57.5928 293.288 57.6786 293.318C57.7643 293.347 57.8359 293.413 57.8777 293.501C57.8777 293.592 61.9326 302.195 64.9831 304.447C67.4662 301.244 70.7523 298.925 74.427 297.782C74.5125 297.753 74.6047 297.764 74.6833 297.81C74.762 297.857 74.8208 297.936 74.8467 298.03C74.8727 298.126 74.8636 298.229 74.8216 298.317C74.7795 298.405 74.7078 298.472 74.6219 298.502C70.9897 299.613 67.7519 301.924 65.3429 305.126C65.314 305.18 65.2737 305.226 65.2254 305.259C65.1771 305.292 65.1223 305.312 65.0655 305.317Z" fill="#263238"/>
<path d="M64.4584 325.801C64.4584 325.801 61.7527 321.048 58.7021 320.37C55.6516 319.691 54.3324 315.807 53.2082 318.142C52.0839 320.477 55.1869 328.227 64.4584 325.801Z" fill="#263238"/>
<path d="M53.4481 344.456H75.9935L77.5001 324.344H51.9415L53.4481 344.456Z" fill="#536675"/>
<path d="M51.4093 328.153H78.0246L78.3694 323.889H51.072L51.4093 328.153Z" fill="#536675"/>
<path opacity="0.3" d="M51.4093 328.153H78.0246L78.3694 323.889H51.072L51.4093 328.153Z" fill="white"/>
<path d="M210.217 172.572L209.078 172.812C208.988 172.819 208.899 172.796 208.821 172.748C208.743 172.699 208.679 172.626 208.639 172.537C208.598 172.449 208.582 172.35 208.592 172.251C208.602 172.153 208.638 172.06 208.695 171.984H208.74C208.418 172.141 208.096 172.299 207.758 172.439C207.731 172.991 207.731 173.544 207.758 174.095L215.111 216.108L187.724 221.97C187.732 222.031 187.732 222.092 187.724 222.152C187.712 222.284 187.655 222.405 187.564 222.49C187.473 222.575 187.356 222.617 187.237 222.608C186.794 222.517 186.345 222.426 185.895 222.359L149.633 230.126C149.627 230.196 149.607 230.264 149.573 230.325C149.437 230.579 149.284 230.823 149.116 231.053C149.137 231.202 149.122 231.353 149.071 231.492C148.791 232.422 148.427 233.318 147.984 234.167C147.841 234.39 147.627 234.547 147.385 234.606C147.227 234.642 147.063 234.627 146.913 234.564C146.741 234.973 146.615 235.404 146.538 235.848L204.64 223.428L204.693 223.353C205.032 223 205.433 222.729 205.872 222.556C206.31 222.384 206.777 222.314 207.241 222.351C207.572 221.924 207.965 221.56 208.403 221.275C208.601 221.131 208.828 221.045 209.063 221.023C209.299 221.001 209.536 221.045 209.752 221.151C210.04 221.339 210.26 221.631 210.374 221.979C210.946 221.901 211.522 221.857 212.098 221.846L220.343 220.074L212.286 174.178C211.488 173.837 210.778 173.286 210.217 172.572Z" fill="#536675"/>
<path d="M135.108 112.534L135.378 112.591L140.797 111.432C141.396 111.142 141.988 110.836 142.566 110.563C143.656 109.993 144.828 109.638 146.028 109.511C146.744 109.475 147.46 109.593 148.134 109.859L194.739 99.8817L199.064 124.506C199.114 124.427 199.184 124.366 199.265 124.329C199.346 124.293 199.435 124.283 199.521 124.3C199.607 124.318 199.686 124.362 199.75 124.428C199.814 124.494 199.859 124.578 199.881 124.672C200.133 125.755 200.268 126.866 200.286 127.984C200.262 128.521 200.151 129.048 199.956 129.541L207.309 171.462C207.751 171.28 208.186 171.081 208.62 170.866C208.664 170.577 208.76 170.301 208.903 170.055C209.046 169.809 209.233 169.597 209.452 169.434C209.766 169.27 210.124 169.24 210.457 169.351C210.63 168.916 210.756 168.46 210.832 167.993C210.937 167.424 210.985 166.843 210.974 166.262L210.682 164.565C210.682 164.474 210.614 164.391 210.577 164.308C210.546 164.245 210.53 164.174 210.53 164.101C210.53 164.029 210.546 163.958 210.577 163.894L202.842 119.828C202.797 119.836 202.751 119.836 202.707 119.828C202.436 119.86 202.162 119.81 201.915 119.683C201.669 119.556 201.458 119.357 201.305 119.108C201.092 118.625 201.026 118.079 201.118 117.551C201.193 116.93 201.335 116.317 201.448 115.705C201.568 115.164 201.604 114.603 201.553 114.049C201.534 113.955 201.543 113.857 201.578 113.77C201.613 113.682 201.673 113.609 201.747 113.56L198.315 94.0112L131.105 108.468C129.857 109.27 128.434 109.679 126.991 109.652C126.922 109.647 126.856 109.624 126.799 109.583C126.741 109.543 126.694 109.487 126.661 109.42L93.3148 116.566C93.2952 116.662 93.2519 116.75 93.1897 116.82C93.1274 116.89 93.0488 116.94 92.9625 116.963L91.2086 117.336C91.2017 117.63 91.1213 117.917 90.9763 118.164C90.9643 118.28 90.9135 118.386 90.8339 118.462C90.7188 118.566 90.6087 118.676 90.5041 118.793C90.3017 119 90.1069 119.224 89.897 119.422C89.8257 119.498 89.7379 119.552 89.6422 119.58C89.5641 119.595 89.4838 119.587 89.409 119.558C89.3343 119.529 89.2675 119.48 89.2149 119.414C89.1374 119.313 89.0973 119.183 89.1025 119.05C89.0982 119.003 89.0982 118.956 89.1025 118.909C88.8327 118.909 88.5628 118.909 88.3005 118.835C88.1826 118.82 88.0742 118.756 87.9975 118.656C87.9209 118.556 87.8818 118.427 87.8883 118.296C87.8979 118.166 87.9536 118.045 88.0434 117.96C88.1332 117.875 88.2499 117.832 88.368 117.841C88.651 117.886 88.9364 117.911 89.2224 117.916H89.4473C89.4797 117.92 89.5123 117.92 89.5447 117.916C89.3244 117.881 89.1224 117.76 88.9751 117.576C88.9728 117.554 88.9728 117.532 88.9751 117.51L69.6675 121.65C69.7567 121.651 69.8443 121.677 69.9224 121.724C70.0188 121.8 70.0852 121.913 70.1075 122.041C70.1299 122.169 70.1065 122.302 70.0423 122.412C69.8878 122.638 69.7147 122.849 69.5251 123.041L69.4727 123.107C69.4727 123.066 69.5176 123.107 69.4727 123.107C69.4403 123.149 69.4103 123.193 69.3827 123.24C69.3827 123.24 69.3827 123.306 69.3827 123.331C69.3792 123.358 69.3792 123.386 69.3827 123.413C69.3792 123.43 69.3792 123.447 69.3827 123.463C69.3729 123.548 69.344 123.629 69.2985 123.699C69.253 123.769 69.1925 123.824 69.1224 123.862C69.0523 123.899 68.9749 123.916 68.8973 123.911C68.8197 123.907 68.7443 123.881 68.6782 123.836C68.6383 123.812 68.5953 123.795 68.5507 123.786C68.5044 123.766 68.4568 123.749 68.4083 123.736C68.4097 123.97 68.3526 124.199 68.2434 124.399C68.2007 124.468 68.1419 124.522 68.0733 124.557C68.0047 124.592 67.9288 124.606 67.8537 124.597C67.7784 125.064 67.6368 125.513 67.434 125.931C67.2077 126.357 66.9009 126.724 66.5345 127.007C66.607 127.114 66.6674 127.231 66.7144 127.355L95.4209 121.211V121.161C95.5427 120.936 95.7001 120.737 95.8856 120.573C96.0087 120.473 96.1512 120.404 96.302 120.374C96.4527 120.344 96.6078 120.353 96.7551 120.4C96.9907 120.48 97.2115 120.606 97.4072 120.772L134.576 112.815C134.619 112.705 134.696 112.616 134.794 112.564C134.892 112.513 135.003 112.502 135.108 112.534Z" fill="#536675"/>
<path d="M85.1226 243.962L78.3769 205.584C78.3177 205.659 78.2397 205.712 78.1528 205.737C78.066 205.762 77.9744 205.758 77.8897 205.725C77.7777 205.682 77.6857 205.591 77.6337 205.474C77.5818 205.356 77.5741 205.22 77.6124 205.096C77.7246 204.731 77.8946 204.392 78.1146 204.094L69.2778 153.66L69.1953 153.503C69.0156 153.094 68.887 152.659 68.8131 152.211C68.6584 152.199 68.5031 152.199 68.3484 152.211C68.2804 152.224 68.2108 152.219 68.1447 152.198C68.0785 152.177 68.0176 152.139 67.9664 152.088C67.9152 152.037 67.8751 151.974 67.8491 151.904C67.8231 151.833 67.8119 151.757 67.8162 151.681C67.8074 150.726 68.0299 149.786 68.4608 148.957L64.8781 128.555C64.8183 128.447 64.7657 128.333 64.7207 128.216L64.5408 127.843C64.4672 127.841 64.3955 127.817 64.3334 127.773C64.2714 127.729 64.2213 127.668 64.1886 127.595C64.1365 127.477 64.1285 127.342 64.1664 127.218C64.2043 127.094 64.285 126.991 64.3909 126.932C64.5782 126.852 64.749 126.731 64.8931 126.576C64.9952 126.448 65.0786 126.303 65.1404 126.146C65.2582 125.796 65.3216 125.426 65.3278 125.053C65.2153 124.884 65.1338 124.693 65.088 124.49C65.054 124.212 65.077 123.929 65.1554 123.662C65.1713 123.592 65.2051 123.529 65.2529 123.48C65.2529 123.165 65.2079 122.85 65.1929 122.536L59.4591 123.761L75.8211 217.011C75.9027 216.962 75.9977 216.949 76.0877 216.974C76.1777 216.998 76.2562 217.058 76.3083 217.143C76.7319 217.65 76.9651 218.316 76.9603 219.006C76.9378 219.142 76.9027 219.276 76.8554 219.404C76.931 219.464 76.9866 219.55 77.0137 219.649C77.0407 219.748 77.0378 219.853 77.0053 219.95C76.7861 220.425 76.7149 220.966 76.8029 221.49C76.8971 221.983 77.0249 222.468 77.1852 222.939C77.4679 223.732 77.5048 224.605 77.2901 225.423L81.5624 249.791L82.7766 249.526C83.4592 249.278 84.1551 249.076 84.8603 248.922C84.8497 248.865 84.8502 248.805 84.8618 248.748C84.8735 248.691 84.8959 248.637 84.9277 248.591C85.1059 248.363 85.2961 248.148 85.4973 247.945C85.4786 247.861 85.4786 247.772 85.4973 247.688C85.6231 247.115 85.9153 246.603 86.3293 246.231C86.7049 245.925 87.1685 245.781 87.6335 245.825C88.0815 245.888 88.5114 246.059 88.8924 246.326C89.2734 246.594 89.596 246.952 89.837 247.374C91.0663 247.042 92.3929 246.546 93.5846 247.216L140.175 237.28C140.189 237.145 140.214 237.012 140.25 236.883C140.44 236.212 140.796 235.613 141.276 235.152C141.348 235.084 141.438 235.043 141.533 235.036C141.627 235.029 141.721 235.055 141.801 235.111C141.837 235.046 141.888 234.992 141.948 234.955C142.009 234.917 142.077 234.898 142.146 234.898C142.215 234.898 142.283 234.917 142.343 234.955C142.404 234.992 142.454 235.046 142.491 235.111L142.678 235.359L142.76 235.442L142.903 235.55L143.06 235.632C142.918 235.154 142.918 234.637 143.06 234.159C143.148 233.889 143.285 233.643 143.463 233.435C143.641 233.227 143.856 233.062 144.095 232.95C144.05 232.884 144.022 232.806 144.012 232.724C144.002 232.643 144.011 232.559 144.038 232.483C144.065 232.406 144.109 232.338 144.166 232.285C144.223 232.232 144.291 232.196 144.364 232.18C144.462 232.166 144.561 232.188 144.646 232.242C144.732 232.296 144.799 232.378 144.839 232.478C144.879 232.577 144.888 232.688 144.866 232.794C144.844 232.9 144.792 232.995 144.717 233.066L144.769 233.132C144.821 233.249 144.829 233.385 144.791 233.509C144.753 233.633 144.673 233.736 144.567 233.794L144.394 233.885L144.297 233.943L144.245 233.985L144.125 234.101L144.08 234.159L144.005 234.283V234.333C143.988 234.376 143.973 234.42 143.96 234.465C144.109 234.248 144.283 234.053 144.477 233.885C144.607 233.786 144.748 233.705 144.897 233.645C145.264 232.751 145.609 231.84 145.953 230.946L85.1226 243.962Z" fill="#536675"/>
<path d="M96.2004 205.344C96.2802 205.248 96.3739 205.166 96.4777 205.104L110.014 175.561L103.793 176.894L98.3365 188.693C98.3706 188.702 98.4034 188.716 98.434 188.734C98.5304 188.81 98.5968 188.923 98.6192 189.051C98.6415 189.179 98.6181 189.312 98.5539 189.422C98.4265 189.629 98.329 189.852 98.2166 190.067C98.314 190.134 98.404 190.216 98.5014 190.274C98.5752 190.33 98.6325 190.408 98.6658 190.5C98.6992 190.591 98.7072 190.691 98.6888 190.788C98.6704 190.883 98.6274 190.971 98.5649 191.04C98.5023 191.109 98.423 191.157 98.3365 191.177L98.1866 191.268H98.1492H98.1042L97.8119 191.417H97.7444L97.6395 191.508L97.4071 191.732L97.2872 191.872L97.2347 191.939L97.0249 192.237C96.875 192.46 96.7401 192.692 96.5977 192.924C96.5281 193.032 96.4233 193.106 96.3054 193.131L88.323 210.403L89.0725 214.858L92.6177 214.096C92.7314 213.725 92.9212 213.387 93.1724 213.111C93.2911 212.987 93.4218 212.879 93.5621 212.788C93.5584 212.757 93.5584 212.727 93.5621 212.697C93.7302 210.691 94.3205 208.758 95.286 207.05C95.2379 206.967 95.2123 206.871 95.2123 206.772C95.2123 206.674 95.2379 206.578 95.286 206.495C95.4083 206.259 95.4558 205.985 95.4209 205.717C95.4218 205.617 95.4487 205.52 95.4985 205.438C95.5482 205.355 95.6186 205.29 95.7011 205.25C95.7836 205.211 95.8747 205.199 95.9633 205.215C96.0519 205.232 96.1343 205.277 96.2004 205.344Z" fill="#536675"/>
<path d="M119.518 202.719C119.51 202.843 119.479 202.965 119.428 203.075C119.206 203.556 118.844 203.941 118.401 204.168C118.311 204.317 118.214 204.458 118.131 204.599C118.083 204.674 118.015 204.732 117.936 204.764C117.936 204.839 117.884 204.922 117.869 204.996C117.851 205.061 117.822 205.12 117.783 205.172C117.744 205.223 117.696 205.265 117.642 205.296C117.587 205.326 117.528 205.344 117.467 205.348C117.407 205.352 117.346 205.343 117.288 205.321C117.231 205.298 117.179 205.263 117.134 205.218C117.089 205.172 117.053 205.117 117.028 205.056C117.003 204.995 116.99 204.928 116.989 204.861C116.988 204.794 116.999 204.727 117.022 204.665C117.096 204.381 117.191 204.104 117.307 203.837L116.88 203.928C116.764 203.95 116.644 203.922 116.547 203.85C116.449 203.777 116.38 203.666 116.355 203.539C116.344 203.501 116.344 203.461 116.355 203.423L116.093 203.481L114.399 193.752L108.987 194.911L110.681 204.582L97.2872 207.447C97.1973 207.497 97.1148 207.571 97.0249 207.629V207.696C97.0579 207.802 97.057 207.919 97.0222 208.025C96.9874 208.131 96.9208 208.221 96.8335 208.28C96.7461 208.339 96.6432 208.363 96.5418 208.349C96.4403 208.334 96.3463 208.282 96.2754 208.201C96.0256 208.438 95.7972 208.701 95.5933 208.987C95.6716 208.963 95.7545 208.963 95.8327 208.988C95.9108 209.013 95.9811 209.061 96.0355 209.128C96.0772 209.173 96.1103 209.228 96.1329 209.287C96.1555 209.347 96.1672 209.411 96.1672 209.476C96.1672 209.54 96.1555 209.604 96.1329 209.664C96.1103 209.724 96.0772 209.778 96.0355 209.823L95.6758 210.155C95.7214 210.238 95.7454 210.334 95.7454 210.432C95.7454 210.53 95.7214 210.626 95.6758 210.709V210.767C95.6721 210.798 95.6721 210.828 95.6758 210.858C95.6758 210.974 95.6758 211.099 95.6758 211.223C95.66 211.445 95.5722 211.654 95.4284 211.811C95.265 211.966 95.0647 212.067 94.8513 212.1H94.7988C94.8197 212.348 94.8523 212.594 94.8963 212.837C94.9982 213.062 95.0786 213.298 95.1361 213.541L111.543 210.03L113.387 221.076L118.978 219.884L117.059 208.938L124.712 207.282L123.753 201.817L119.518 202.719Z" fill="#536675"/>
<path d="M152.002 172.911L151.642 173.259C151.47 173.425 151.305 173.59 151.147 173.764L150.945 174.012L150.833 174.161C150.704 174.368 150.512 174.516 150.292 174.577C150.072 174.639 149.84 174.611 149.637 174.498C149.435 174.384 149.277 174.194 149.192 173.962C149.107 173.729 149.102 173.471 149.176 173.234L149.386 172.356C149.386 172.356 149.326 172.29 149.304 172.241C149.243 172.116 149.212 171.976 149.214 171.835C149.199 171.7 149.214 171.564 149.259 171.437C149.259 171.338 149.326 171.239 149.364 171.139C149.199 170.964 149.063 170.76 148.959 170.535V170.469C145.797 168.632 142.152 168.081 138.66 168.912C129.217 170.932 123.67 180.711 126.188 195.209C128.707 209.707 137.206 216.481 146.65 214.46C147.499 214.282 148.333 214.03 149.146 213.707C149.409 213.293 149.671 212.879 149.896 212.473C149.985 212.331 150.105 212.216 150.244 212.139C150.384 212.062 150.539 212.025 150.695 212.031C150.852 212.038 151.004 212.088 151.138 212.177C151.272 212.266 151.383 212.39 151.462 212.539C157.811 208.631 161.108 199.962 159.04 188.171C157.863 181.332 155.33 176.198 152.002 172.911ZM145.661 208.805C139.328 210.163 133.946 205.377 131.945 193.984C129.944 182.591 133.316 175.933 139.65 174.584C141.314 174.186 143.045 174.296 144.656 174.901C146.268 175.507 147.701 176.585 148.801 178.02C148.908 177.936 149.027 177.875 149.154 177.838C149.399 177.789 149.652 177.848 149.858 178.003C150.064 178.158 150.206 178.396 150.255 178.666C150.335 179.191 150.348 179.726 150.293 180.256C151.781 183.067 152.796 186.153 153.291 189.364C155.307 200.798 151.934 207.464 145.661 208.805Z" fill="#536675"/>
<path d="M193.038 186.979L191.344 177.308L185.925 178.467L187.626 188.138L172.134 191.45L186.952 159.108L180.731 160.433L175.162 172.489C175.11 173.994 174.834 175.479 174.345 176.886C174.311 176.979 174.252 177.058 174.177 177.114C174.101 177.17 174.012 177.2 173.921 177.2C173.831 177.2 173.742 177.17 173.666 177.114C173.591 177.058 173.532 176.979 173.498 176.886C173.348 178.169 172.803 179.356 171.954 180.247C171.899 180.304 171.83 180.343 171.756 180.359C171.682 180.375 171.605 180.368 171.534 180.338L165.231 193.984L165.98 198.438L175.304 196.443C176.1 195.744 177.04 195.275 178.04 195.077C178.919 194.852 179.815 194.722 180.716 194.688C181.392 194.631 182.071 194.686 182.732 194.853L188.383 193.644L190.302 204.582L195.886 203.39L193.967 192.452L201.627 190.796L200.668 185.331L193.038 186.979Z" fill="#536675"/>
<path d="M90.017 160.475L89.1325 155.44L98.2766 153.486L97.5871 149.57L88.443 151.524L87.6185 146.796L97.9693 144.585L97.2198 140.545L82.3419 143.733L83.6161 150.986C83.8432 151.114 84.0446 151.291 84.2082 151.507C84.4909 151.902 84.6605 152.38 84.6954 152.882C84.7928 153.917 84.5605 154.985 84.6954 155.987C84.7136 156.071 84.7092 156.159 84.6825 156.24C84.6558 156.321 84.6082 156.391 84.5455 156.442L86.1944 165.484L101.44 162.222L100.735 158.148L90.017 160.475Z" fill="#536675"/>
<path d="M116.865 151.665C117.971 150.89 118.838 149.763 119.353 148.433C119.868 147.103 120.007 145.631 119.75 144.213C119.675 144.3 119.574 144.356 119.465 144.37C119.378 144.377 119.29 144.354 119.214 144.305C119.138 144.257 119.077 144.184 119.038 144.097C118.936 143.833 118.868 143.554 118.836 143.269C118.836 143.227 118.836 143.194 118.836 143.153C118.697 142.957 118.598 142.732 118.543 142.49C118.526 142.361 118.553 142.23 118.62 142.122C118.686 142.014 118.788 141.939 118.903 141.911C118.949 141.898 118.996 141.896 119.043 141.904C119.089 141.913 119.134 141.932 119.173 141.961C117.742 138.425 114.294 136.852 109.782 137.821L101.26 139.642L102.414 146.208C102.505 146.251 102.578 146.331 102.616 146.432C103.342 148.059 103.794 149.818 103.95 151.623C103.968 151.752 103.941 151.884 103.874 151.992C103.808 152.099 103.706 152.175 103.591 152.203C103.548 152.211 103.505 152.211 103.463 152.203L105.075 161.46L109.632 160.483L108.567 154.43L112.757 153.528L117.614 158.777L122.508 157.726L116.865 151.665ZM111.573 149.603L107.825 150.431L106.491 142.855L110.239 142.027C113.02 141.431 114.676 142.524 115.096 144.917C115.515 147.309 114.361 149.04 111.573 149.603Z" fill="#536675"/>
<path d="M137.544 147.235C138.687 146.433 139.575 145.257 140.084 143.87C140.594 142.484 140.699 140.957 140.384 139.501C139.53 134.624 135.715 132.314 130.453 133.44L121.931 135.27L125.746 157.014L130.304 156.045L129.239 149.984L133.429 149.081L138.293 154.331L143.188 153.279L137.544 147.235ZM132.252 145.181L128.505 146.009L127.178 138.425L130.888 137.597C131.12 137.547 131.345 137.514 131.555 137.489L131.698 137.357C131.711 137.233 131.736 137.111 131.773 136.993C131.821 136.849 131.91 136.726 132.026 136.641C132.141 136.557 132.278 136.514 132.417 136.521C132.683 136.55 132.94 136.646 133.167 136.802C133.206 136.75 133.254 136.708 133.309 136.678C133.312 136.519 133.33 136.361 133.362 136.206C133.405 136.088 133.488 135.992 133.594 135.94C133.699 135.888 133.819 135.882 133.928 135.925C134.037 135.968 134.127 136.055 134.179 136.169C134.232 136.283 134.242 136.415 134.208 136.537C134.119 136.918 134.283 137.258 134.253 137.647C134.243 137.739 134.218 137.829 134.178 137.912C134.6 138.182 134.96 138.555 135.23 139.003C135.5 139.451 135.674 139.961 135.737 140.495C136.187 142.855 135.033 144.585 132.252 145.181Z" fill="#536675"/>
<path d="M159.107 129.243L158.875 129.309C158.82 129.33 158.767 129.357 158.718 129.392C158.694 129.406 158.674 129.426 158.658 129.45C158.591 129.537 158.502 129.6 158.403 129.632C158.344 129.643 158.285 129.642 158.227 129.627C158.169 129.613 158.114 129.587 158.066 129.549C158.015 129.515 157.972 129.469 157.94 129.415C157.907 129.36 157.886 129.299 157.878 129.234C157.855 129.105 157.879 128.971 157.946 128.862C157.946 128.862 157.991 128.82 158.006 128.795C156.087 128.12 154.043 127.997 152.069 128.439C145.848 129.772 142.138 135.535 143.27 141.994C144.402 148.452 149.798 152.269 156.012 150.936C162.225 149.603 165.95 143.873 164.811 137.382C164.531 135.615 163.865 133.95 162.872 132.532C161.878 131.114 160.586 129.985 159.107 129.243ZM155.27 146.631C153.599 146.988 151.868 146.599 150.457 145.547C149.047 144.494 148.072 142.867 147.748 141.021C147.424 139.175 147.777 137.263 148.73 135.705C149.682 134.146 151.156 133.07 152.826 132.712C153.668 132.53 154.533 132.53 155.375 132.712C155.375 132.596 155.442 132.48 155.48 132.381C155.517 132.268 155.59 132.174 155.685 132.116C155.78 132.059 155.891 132.041 155.997 132.066C156.08 132.082 156.157 132.127 156.216 132.194C156.275 132.261 156.314 132.346 156.327 132.439L156.589 132.364C156.649 132.157 156.709 131.958 156.761 131.751C156.814 131.544 156.821 131.511 156.844 131.395C156.86 131.338 156.872 131.28 156.881 131.221V131.163L156.926 130.865V130.758C156.881 130.427 157.196 130.029 157.518 130.203L158.41 130.675C158.52 130.723 158.61 130.816 158.66 130.935C158.71 131.053 158.717 131.188 158.68 131.313C158.627 131.436 158.582 131.563 158.545 131.693C158.545 131.735 158.545 131.784 158.508 131.826C158.508 131.826 158.508 131.826 158.508 131.884C158.493 132.082 158.493 132.282 158.508 132.48C158.524 132.951 158.499 133.422 158.433 133.888C158.454 133.941 158.464 133.999 158.464 134.057C158.464 134.116 158.454 134.173 158.433 134.227C158.417 134.284 158.389 134.335 158.35 134.376C159.33 135.447 159.987 136.827 160.232 138.326C160.436 139.233 160.468 140.178 160.326 141.1C160.183 142.022 159.868 142.901 159.402 143.682C158.935 144.463 158.327 145.128 157.616 145.635C156.905 146.143 156.106 146.482 155.27 146.631Z" fill="#536675"/>
<path d="M184.876 130.617C184.851 130.613 184.826 130.613 184.801 130.617C184.622 130.547 184.457 130.44 184.314 130.302C184.246 130.431 184.168 130.553 184.081 130.667C184.012 130.772 183.909 130.844 183.794 130.868C183.678 130.893 183.559 130.868 183.459 130.799C183.361 130.725 183.294 130.612 183.271 130.483C183.249 130.354 183.273 130.221 183.339 130.112C183.782 129.446 184.061 128.664 184.149 127.843C182.65 124.481 179.269 123.016 174.87 123.96L166.348 125.781L170.14 147.508L174.697 146.531L173.633 140.47L177.823 139.576L182.687 144.817L187.582 143.774L181.938 137.729C183.001 136.988 183.845 135.92 184.367 134.657C184.889 133.394 185.066 131.99 184.876 130.617ZM176.669 135.668L172.921 136.496L171.639 128.878L175.387 128.05C178.175 127.454 179.824 128.555 180.244 130.948C180.664 133.341 179.449 135.072 176.669 135.668Z" fill="#536675"/>
<path d="M145.234 262.194H177.268C178.139 262.194 179.001 262.384 179.805 262.752C180.61 263.12 181.34 263.66 181.956 264.341C182.571 265.021 183.059 265.829 183.391 266.718C183.724 267.607 183.895 268.56 183.894 269.522V281.942C183.895 282.904 183.724 283.857 183.391 284.746C183.059 285.635 182.571 286.442 181.956 287.123C181.34 287.804 180.61 288.343 179.805 288.712C179.001 289.08 178.139 289.27 177.268 289.27H155.982L146.238 300.779L151.485 289.27H145.204C143.444 289.27 141.757 288.498 140.513 287.123C139.269 285.749 138.57 283.885 138.57 281.942V269.522C138.57 268.557 138.743 267.601 139.078 266.71C139.413 265.819 139.905 265.01 140.524 264.329C141.143 263.648 141.878 263.109 142.686 262.742C143.494 262.376 144.36 262.19 145.234 262.194Z" fill="#536675"/>
<path opacity="0.7" d="M145.234 262.194H177.268C178.139 262.194 179.001 262.384 179.805 262.752C180.61 263.12 181.34 263.66 181.956 264.341C182.571 265.021 183.059 265.829 183.391 266.718C183.724 267.607 183.895 268.56 183.894 269.522V281.942C183.895 282.904 183.724 283.857 183.391 284.746C183.059 285.635 182.571 286.442 181.956 287.123C181.34 287.804 180.61 288.343 179.805 288.712C179.001 289.08 178.139 289.27 177.268 289.27H155.982L146.238 300.779L151.485 289.27H145.204C143.444 289.27 141.757 288.498 140.513 287.123C139.269 285.749 138.57 283.885 138.57 281.942V269.522C138.57 268.557 138.743 267.601 139.078 266.71C139.413 265.819 139.905 265.01 140.524 264.329C141.143 263.648 141.878 263.109 142.686 262.742C143.494 262.376 144.36 262.19 145.234 262.194Z" fill="white"/>
<path d="M146.8 275.045C146.772 274.209 146.97 273.383 147.37 272.672C147.769 271.962 148.352 271.399 149.043 271.057C149.734 270.715 150.502 270.609 151.248 270.752C151.994 270.895 152.684 271.281 153.23 271.86C153.776 272.44 154.153 273.186 154.313 274.004C154.472 274.822 154.407 275.674 154.125 276.45C153.843 277.226 153.358 277.892 152.731 278.362C152.104 278.831 151.365 279.083 150.608 279.086C150.114 279.113 149.62 279.028 149.157 278.837C148.694 278.646 148.271 278.352 147.915 277.973C147.558 277.595 147.275 277.14 147.084 276.636C146.892 276.133 146.796 275.591 146.8 275.045ZM153.374 275.045C153.379 274.435 153.221 273.838 152.918 273.328C152.616 272.818 152.183 272.419 151.674 272.182C151.166 271.945 150.605 271.88 150.063 271.996C149.522 272.112 149.023 272.404 148.632 272.834C148.241 273.264 147.974 273.813 147.866 274.411C147.758 275.008 147.813 275.628 148.025 276.191C148.237 276.754 148.596 277.235 149.056 277.572C149.516 277.909 150.056 278.087 150.608 278.084C150.973 278.096 151.336 278.026 151.676 277.878C152.016 277.73 152.324 277.507 152.583 277.223C152.842 276.938 153.046 276.598 153.182 276.224C153.318 275.85 153.383 275.448 153.374 275.045Z" fill="#536675"/>
<path d="M155.315 276.006C155.3 275.387 155.452 274.778 155.752 274.256C156.052 273.733 156.486 273.321 156.998 273.073C157.511 272.824 158.079 272.749 158.63 272.858C159.181 272.968 159.69 273.256 160.092 273.686C160.495 274.116 160.772 274.669 160.888 275.274C161.005 275.879 160.956 276.509 160.747 277.083C160.539 277.657 160.18 278.149 159.717 278.497C159.254 278.845 158.708 279.033 158.148 279.036C157.779 279.057 157.409 278.993 157.063 278.849C156.717 278.705 156.401 278.485 156.136 278.2C155.87 277.916 155.66 277.575 155.519 277.197C155.378 276.82 155.308 276.414 155.315 276.006ZM159.954 276.006C159.97 275.73 159.935 275.454 159.85 275.194C159.766 274.934 159.634 274.696 159.463 274.494C159.292 274.293 159.085 274.132 158.856 274.022C158.627 273.913 158.379 273.856 158.129 273.856C157.879 273.856 157.632 273.913 157.402 274.022C157.173 274.132 156.966 274.293 156.795 274.494C156.624 274.696 156.492 274.934 156.408 275.194C156.323 275.454 156.288 275.73 156.304 276.006C156.288 276.281 156.323 276.558 156.408 276.817C156.492 277.077 156.624 277.315 156.795 277.517C156.966 277.718 157.173 277.879 157.402 277.989C157.632 278.099 157.879 278.155 158.129 278.155C158.379 278.155 158.627 278.099 158.856 277.989C159.085 277.879 159.292 277.718 159.463 277.517C159.634 277.315 159.766 277.077 159.85 276.817C159.935 276.558 159.97 276.281 159.954 276.006Z" fill="#536675"/>
<path d="M167.892 276.006C167.912 276.41 167.855 276.815 167.725 277.194C167.595 277.573 167.395 277.918 167.138 278.206C166.88 278.495 166.571 278.721 166.229 278.869C165.888 279.018 165.522 279.086 165.156 279.069C164.794 279.081 164.434 278.999 164.106 278.83C163.778 278.66 163.49 278.407 163.267 278.092V281.189H162.285V273.016H163.222V273.969C163.447 273.64 163.74 273.377 164.077 273.201C164.413 273.025 164.784 272.942 165.156 272.959C165.521 272.942 165.885 273.01 166.226 273.157C166.566 273.305 166.875 273.529 167.132 273.816C167.389 274.102 167.59 274.445 167.721 274.822C167.851 275.199 167.91 275.602 167.892 276.006ZM166.902 276.006C166.885 275.613 166.763 275.234 166.553 274.917C166.343 274.6 166.053 274.357 165.72 274.22C165.386 274.082 165.023 274.056 164.676 274.144C164.329 274.232 164.013 274.43 163.767 274.714C163.521 274.998 163.356 275.356 163.292 275.742C163.228 276.129 163.267 276.528 163.406 276.89C163.545 277.252 163.777 277.562 164.074 277.78C164.37 277.998 164.718 278.115 165.073 278.117C165.324 278.126 165.572 278.076 165.804 277.972C166.036 277.868 166.246 277.712 166.419 277.513C166.593 277.314 166.727 277.077 166.813 276.818C166.899 276.558 166.934 276.281 166.917 276.006H166.902Z" fill="#536675"/>
<path d="M168.581 278.365L168.986 277.537C169.555 277.937 170.215 278.15 170.89 278.15C171.797 278.15 172.171 277.852 172.171 277.322C172.171 275.981 168.754 277.148 168.754 274.764C168.754 273.695 169.623 272.967 171.002 272.967C171.691 272.955 172.371 273.144 172.973 273.513L172.554 274.341C172.087 274.019 171.545 273.855 170.995 273.869C170.133 273.869 169.713 274.217 169.713 274.697C169.713 276.105 173.146 274.954 173.146 277.281C173.146 278.357 172.246 279.053 170.807 279.053C170.019 279.079 169.243 278.839 168.581 278.365Z" fill="#536675"/>
<path d="M174.158 278.34C174.158 278.244 174.175 278.148 174.209 278.059C174.243 277.97 174.294 277.889 174.356 277.822C174.419 277.755 174.494 277.702 174.576 277.668C174.657 277.633 174.745 277.617 174.832 277.62C174.918 277.618 175.004 277.635 175.084 277.67C175.164 277.706 175.237 277.759 175.298 277.826C175.359 277.893 175.407 277.974 175.439 278.062C175.471 278.151 175.486 278.245 175.484 278.34C175.485 278.436 175.469 278.53 175.437 278.619C175.404 278.707 175.357 278.787 175.296 278.855C175.235 278.923 175.163 278.977 175.083 279.014C175.004 279.05 174.918 279.069 174.832 279.069C174.744 279.071 174.657 279.054 174.575 279.018C174.493 278.983 174.419 278.93 174.356 278.862C174.293 278.794 174.243 278.713 174.209 278.623C174.175 278.534 174.158 278.438 174.158 278.34ZM174.248 271.104H175.387L175.192 276.502H174.442L174.248 271.104Z" fill="#536675"/>
<path d="M332.036 133.126C332.036 135.825 318.672 138.144 299.529 139.162L297.993 139.245L295.924 139.336C293.054 139.46 290.07 139.551 286.997 139.626H285.618H284.869C282.508 139.667 280.094 139.684 277.643 139.684C273.206 139.684 268.897 139.617 264.767 139.501L261.769 139.394C254.236 139.121 247.4 138.649 241.644 138.036C230.349 136.827 223.221 135.063 223.221 133.068C223.221 130.095 239.411 127.595 261.679 126.767L263.425 126.701C264.979 126.651 266.556 126.61 268.155 126.576C270.081 126.535 272.045 126.51 274.031 126.494H277.651C283.257 126.494 288.669 126.593 293.758 126.792L296.172 126.883L299.312 127.032L300.129 127.081L302.22 127.197C319.856 128.34 332.036 130.551 332.036 133.126Z" fill="#263238"/>
<path opacity="0.4" d="M332.036 133.126C332.036 135.825 318.672 138.144 299.529 139.162L297.993 139.245L295.924 139.336C293.054 139.46 290.07 139.551 286.997 139.626H285.618H284.869C282.508 139.667 280.094 139.684 277.643 139.684C273.206 139.684 268.897 139.617 264.767 139.501L261.769 139.394C254.236 139.121 247.4 138.649 241.644 138.036C230.349 136.827 223.221 135.063 223.221 133.068C223.221 132.19 224.638 131.346 227.209 130.584C231.957 131.813 236.782 132.643 241.644 133.068C247.4 133.681 254.236 134.153 261.769 134.426L264.767 134.533C268.897 134.649 273.206 134.716 277.643 134.716C280.094 134.716 282.508 134.716 284.869 134.658H285.618H286.997C290.07 134.583 293.054 134.492 295.924 134.368L297.993 134.277L299.529 134.194C312.444 133.507 322.719 132.232 328.048 130.642C330.582 131.412 332.036 132.24 332.036 133.126Z" fill="white"/>
<path d="M273.948 126.552C273.894 127.538 273.558 128.48 272.989 129.243C272.367 130.071 271.835 130.7 271.228 131.387C270.868 131.793 270.478 132.215 270.141 132.58C269.901 132.853 269.654 133.109 269.391 133.358C268.122 134.653 266.78 135.859 265.374 136.968L265.127 137.158L264.474 137.639C263.576 138.302 262.64 138.899 261.671 139.427C261.311 139.626 260.922 139.816 260.562 139.998C259.664 140.416 258.74 140.759 257.796 141.025C256.957 141.274 256.155 141.489 255.36 141.671C254.244 141.944 253.112 142.193 252.04 142.416C249.994 142.855 247.955 143.244 245.901 143.575C244.155 143.865 242.409 144.138 240.655 144.403C239.246 144.594 237.837 144.759 236.413 144.892C236.256 144.913 236.097 144.913 235.94 144.892C235.466 144.82 235.027 144.572 234.698 144.188C234.368 143.804 234.166 143.308 234.126 142.78C234.119 142.676 234.119 142.571 234.126 142.466C234.146 142.008 234.288 141.566 234.534 141.198C234.781 140.829 235.122 140.55 235.513 140.396L235.693 140.33C237.634 139.56 239.583 138.831 241.539 138.127L244.5 137.067C247.498 135.991 250.496 134.981 253.412 133.913C254.161 133.648 254.858 133.374 255.525 133.085C256.1 132.874 256.653 132.597 257.174 132.257C257.511 132.041 257.849 131.801 258.193 131.545C258.949 130.983 259.677 130.378 260.375 129.731C261.364 128.829 262.353 127.835 263.32 126.8C264.874 126.75 266.451 126.709 268.05 126.676C269.998 126.593 271.962 126.568 273.948 126.552Z" fill="#FFB573"/>
<path d="M274.038 129.897C273.986 130.071 273.926 130.236 273.866 130.402C273.806 130.567 273.738 130.733 273.663 130.899C273.597 131.061 273.522 131.219 273.439 131.371L273.191 131.842V131.884C273.021 132.176 272.841 132.452 272.652 132.712C272.449 133.002 272.239 133.283 272.014 133.54L271.805 133.797C271.479 134.182 271.133 134.547 270.77 134.89C270.65 135.014 270.523 135.13 270.396 135.237C270.352 135.286 270.304 135.331 270.253 135.37C269.13 136.36 267.925 137.233 266.655 137.978L266.198 138.235L265.749 138.483L265.576 138.566L265.029 138.036L264.564 137.572L263.515 136.546L258.268 131.437L257.871 131.048C257.871 131.048 259.475 129.069 261.619 126.759L263.365 126.692C264.919 126.643 266.496 126.601 268.095 126.568C270.021 126.527 271.984 126.502 273.971 126.485H274.405C274.513 127.638 274.388 128.804 274.038 129.897Z" fill="#536675"/>
<path opacity="0.7" d="M274.046 129.897C273.993 130.068 273.933 130.237 273.866 130.402C273.806 130.567 273.738 130.733 273.663 130.899C273.597 131.061 273.522 131.219 273.439 131.371L273.191 131.842V131.884C273.021 132.176 272.841 132.452 272.652 132.712C272.449 133.002 272.239 133.283 272.014 133.54L271.805 133.797C271.478 134.182 271.133 134.547 270.77 134.89C270.65 135.014 270.523 135.13 270.396 135.237C270.352 135.286 270.304 135.331 270.253 135.37C269.129 136.36 267.925 137.233 266.655 137.978L266.198 138.235L265.749 138.483L265.576 138.566L265.029 138.036L264.564 137.572L263.515 136.546L258.268 131.437L257.871 131.048C257.871 131.048 259.475 129.069 261.619 126.759L263.365 126.692C264.919 126.643 266.496 126.601 268.094 126.568C270.021 126.527 271.984 126.502 273.971 126.485H274.413C274.521 127.638 274.395 128.804 274.046 129.897Z" fill="white"/>
<path opacity="0.1" d="M270.201 135.428C268.757 136.702 267.179 137.778 265.501 138.632L263.44 136.62C264.523 133.068 266.473 129.916 269.077 127.512C270.013 129.433 270.313 133.449 270.201 135.428Z" fill="black"/>
<path d="M236.308 140.371L229.352 139.195L229.405 146.001C229.405 146.001 234.171 147.583 236.697 144.006L236.308 140.371Z" fill="#EBB376"/>
<path d="M224.608 141.033L225.754 146.092L229.397 146.001L229.345 139.195L224.608 141.033Z" fill="#EBB376"/>
<path d="M299.23 127.073C299.17 127.247 299.102 127.421 299.042 127.603C298.862 128.108 298.69 128.622 298.525 129.135C298.42 129.45 298.323 129.764 298.225 130.087C298.128 130.41 298.023 130.733 297.933 131.056C297.656 132.016 297.386 132.985 297.123 133.97C297.114 134.024 297.102 134.076 297.086 134.128C296.801 135.221 296.546 136.339 296.299 137.44V137.572C296.172 138.152 296.037 138.731 295.917 139.319C295.857 139.584 295.804 139.841 295.752 140.106C295.549 141.124 295.355 142.151 295.175 143.17C295.107 143.55 295.04 143.931 294.98 144.304C294.92 144.676 294.837 145.132 294.777 145.488C294.777 145.571 294.777 145.654 294.74 145.736C294.702 145.952 294.665 146.167 294.635 146.382C294.538 146.987 294.448 147.583 294.358 148.171C294.358 148.262 294.358 148.345 294.32 148.436L294.23 149.057C294.05 150.265 293.893 151.45 293.751 152.6C293.747 152.667 293.747 152.733 293.751 152.799C293.593 154.066 293.458 155.283 293.338 156.467C293.286 156.956 293.233 157.436 293.188 157.908C293.121 158.57 293.061 159.208 293.009 159.829C292.964 160.284 292.926 160.731 292.889 161.162C292.851 161.593 292.821 161.99 292.791 162.346C292.761 162.702 292.731 163.108 292.701 163.464C292.626 164.474 292.566 165.385 292.514 166.171C292.514 166.519 292.476 166.834 292.454 167.132C292.394 168.233 292.364 169.003 292.349 169.351C292.349 169.492 292.349 169.566 292.349 169.566L279.06 168.217H278.865L276.617 167.985L273.236 167.637L269.077 167.256L268.095 167.157L263.125 166.652C263.125 166.13 263.08 165.625 263.073 165.112C263.073 164.971 263.073 164.83 263.073 164.689C262.931 160.168 263.005 156.02 263.223 152.269C263.343 150.304 263.498 148.436 263.688 146.664C263.957 144.113 264.295 141.77 264.677 139.609C264.759 139.121 264.849 138.64 264.939 138.177C264.999 137.854 265.059 137.547 265.127 137.241C265.629 134.756 266.25 132.302 266.985 129.888C267.345 128.729 267.735 127.678 268.057 126.725C269.983 126.684 271.947 126.659 273.933 126.643H277.554C283.16 126.643 288.571 126.742 293.661 126.941L296.074 127.032L299.23 127.073Z" fill="#536675"/>
<path opacity="0.7" d="M299.23 127.073C299.17 127.247 299.102 127.421 299.042 127.603C298.862 128.108 298.69 128.622 298.525 129.135C298.42 129.45 298.323 129.764 298.225 130.087C298.128 130.41 298.023 130.733 297.933 131.056V131.114C297.656 132.058 297.401 133.002 297.146 133.97C297.137 134.024 297.124 134.076 297.108 134.128C296.749 135.535 296.411 136.968 296.097 138.409C296.029 138.715 295.969 139.03 295.909 139.336C295.849 139.642 295.797 139.858 295.744 140.122C295.542 141.141 295.347 142.168 295.167 143.186C295.092 143.567 295.025 143.948 294.965 144.329C294.897 144.718 294.83 145.115 294.77 145.504C294.77 145.587 294.77 145.678 294.725 145.761C294.688 145.976 294.65 146.192 294.62 146.407C294.523 147.011 294.433 147.608 294.343 148.195C294.343 148.287 294.343 148.369 294.305 148.46L294.215 149.081C294.043 150.29 293.878 151.474 293.736 152.625C293.732 152.691 293.732 152.758 293.736 152.824C293.578 154.091 293.443 155.308 293.323 156.492C293.271 156.981 293.218 157.461 293.173 157.933C293.106 158.595 293.046 159.233 292.994 159.854C292.949 160.309 292.911 160.756 292.874 161.187C292.836 161.617 292.806 162.015 292.776 162.371C292.746 162.727 292.716 163.133 292.686 163.489C292.611 164.499 292.551 165.41 292.499 166.196C292.499 166.544 292.461 166.859 292.439 167.157C292.379 168.258 292.349 169.028 292.334 169.376C292.334 169.516 292.334 169.591 292.334 169.591L279.045 168.241H278.85L276.602 168.01L273.221 167.662L269.077 167.256L268.095 167.157L263.125 166.652C263.125 166.13 263.08 165.625 263.073 165.112C263.073 164.971 263.073 164.83 263.073 164.689C262.931 160.168 263.005 156.02 263.223 152.269C263.343 150.304 263.498 148.436 263.688 146.664C263.957 144.113 264.295 141.77 264.677 139.609C264.759 139.121 264.849 138.64 264.939 138.177C264.999 137.854 265.059 137.547 265.127 137.241C265.629 134.756 266.25 132.302 266.985 129.888C267.345 128.729 267.735 127.678 268.057 126.725C269.983 126.684 271.947 126.659 273.933 126.643H277.554C283.16 126.643 288.571 126.742 293.661 126.941L296.074 127.032L299.23 127.073Z" fill="white"/>
<path d="M227.478 236.974C227.478 236.974 236.847 232.668 237.17 228.404C237.173 228.302 237.196 228.201 237.236 228.109C237.276 228.018 237.334 227.936 237.404 227.87C237.475 227.804 237.557 227.754 237.645 227.725C237.734 227.696 237.827 227.687 237.919 227.7L245.069 228.18C245.238 228.196 245.4 228.261 245.538 228.369C245.677 228.476 245.786 228.623 245.856 228.793L248.72 236.104L246.733 236.402L245.901 235.4L245.152 236.642C234.389 238.298 229.727 238.837 227.508 238.423C227.104 237.421 227.478 236.974 227.478 236.974Z" fill="black"/>
<path d="M271.393 193.976C270.98 193.876 270.755 193.802 270.755 193.802L237.027 189.148L247.056 228.602L236.847 229.679C236.847 229.679 213.552 180.04 223.071 172.878C232.59 165.716 262.106 173.623 262.106 173.623L263.268 163.795L292.611 166.213C297.326 198.612 275.44 194.911 271.393 193.976Z" fill="#263238"/>
<path d="M261.671 307.958C261.671 307.958 271.775 306.89 273.206 302.883C273.236 302.789 273.283 302.703 273.344 302.63C273.405 302.556 273.478 302.498 273.56 302.457C273.642 302.416 273.73 302.393 273.82 302.391C273.91 302.389 274 302.407 274.083 302.444L280.829 305.209C280.985 305.277 281.122 305.39 281.226 305.535C281.33 305.681 281.397 305.854 281.421 306.037L282.23 313.953L280.252 313.597L279.712 312.371L278.693 313.324C267.975 311.411 263.358 310.459 261.349 309.341C261.162 308.248 261.671 307.958 261.671 307.958Z" fill="black"/>
<path d="M292.904 177.954C292.859 178.153 291.637 184.363 290.04 193.264C289.95 193.769 289.861 194.299 289.763 194.82C289.014 199.051 288.189 203.812 287.38 208.772C286.39 214.808 285.408 221.192 284.584 227.212C283.466 234.752 282.738 242.358 282.403 249.99C282.013 269.175 281.286 307.031 281.286 307.031L271.94 305.375C271.94 305.375 266.775 265.002 266.835 245.452C266.88 233.032 269.669 207.439 271.572 191.525C272.532 183.361 273.266 177.73 273.266 177.73L283.857 177.838L292.904 177.954Z" fill="#263238"/>
<path d="M292.169 169.367L292.791 169.425L292.761 167.181L292.214 167.14L292.169 169.367Z" fill="#263238"/>
<path d="M269.099 167.388L281.616 168.465L281.676 166.238L269.204 165.178L269.099 167.388Z" fill="#263238"/>
<path d="M268.237 165.095L262.945 164.64L262.758 166.842L268.117 167.306L268.237 165.095Z" fill="#263238"/>
<path d="M291.247 167.057L282.635 166.32L282.598 168.548L291.18 169.285L291.247 167.057Z" fill="#263238"/>
<g opacity="0.2">
<path d="M292.169 169.367L292.791 169.425L292.761 167.181L292.214 167.14L292.169 169.367Z" fill="white"/>
<path d="M269.099 167.388L281.616 168.465L281.676 166.238L269.204 165.178L269.099 167.388Z" fill="white"/>
<path d="M268.237 165.095L262.945 164.64L262.758 166.842L268.117 167.306L268.237 165.095Z" fill="white"/>
<path d="M291.247 167.057L282.635 166.32L282.598 168.548L291.18 169.285L291.247 167.057Z" fill="white"/>
</g>
<path d="M276.452 168.316H276.392L273.274 167.993C273.111 167.978 272.959 167.894 272.852 167.758C272.744 167.622 272.688 167.445 272.697 167.264L272.742 165.915C272.744 165.82 272.765 165.726 272.802 165.641C272.84 165.555 272.893 165.479 272.959 165.418C273.022 165.353 273.096 165.304 273.178 165.274C273.259 165.244 273.346 165.234 273.431 165.244L276.534 165.509C276.697 165.522 276.849 165.604 276.958 165.738C277.067 165.873 277.125 166.049 277.119 166.229V167.637C277.118 167.733 277.098 167.827 277.062 167.914C277.026 168.001 276.974 168.079 276.909 168.142C276.782 168.263 276.619 168.325 276.452 168.316ZM273.379 165.832C273.359 165.824 273.338 165.824 273.319 165.832C273.314 165.844 273.311 165.856 273.311 165.869C273.311 165.882 273.314 165.895 273.319 165.906L273.266 167.256C273.265 167.27 273.267 167.284 273.271 167.297C273.275 167.31 273.281 167.322 273.29 167.332C273.298 167.342 273.308 167.35 273.32 167.355C273.331 167.361 273.344 167.364 273.356 167.364L276.474 167.687C276.486 167.692 276.499 167.695 276.512 167.695C276.524 167.695 276.537 167.692 276.549 167.687C276.558 167.663 276.558 167.636 276.549 167.612V166.204C276.549 166.177 276.54 166.151 276.523 166.131C276.507 166.111 276.484 166.099 276.459 166.097L273.356 165.832H273.379Z" fill="white"/>
<path d="M276.407 167.173L275.455 167.074C275.383 167.065 275.316 167.026 275.27 166.964C275.224 166.902 275.201 166.823 275.207 166.743C275.215 166.665 275.25 166.594 275.305 166.544C275.359 166.495 275.429 166.471 275.5 166.478L276.452 166.577C276.523 166.577 276.592 166.608 276.642 166.664C276.693 166.72 276.721 166.796 276.721 166.875C276.721 166.954 276.693 167.03 276.642 167.086C276.592 167.142 276.523 167.173 276.452 167.173H276.407Z" fill="white"/>
<path opacity="0.1" d="M297.086 134.136C296.726 135.544 296.389 136.976 296.074 138.417C295.954 138.988 295.834 139.559 295.722 140.131C295.16 142.938 294.68 145.753 294.283 148.469L294.193 149.09C289.044 150.92 283.7 149.661 283.872 144.18C284.119 136.835 289.786 133.416 289.786 133.416C292.311 131.884 294.957 132.48 297.086 134.136Z" fill="black"/>
<path d="M246.711 344.456H253.644L231.099 147.641H224.165L246.711 344.456Z" fill="#263238"/>
<path opacity="0.4" d="M246.711 344.456H253.644L231.099 147.641H224.165L246.711 344.456Z" fill="white"/>
<path d="M232.215 176.811H254.259C254.533 176.795 254.798 176.693 255.022 176.517C255.246 176.341 255.421 176.099 255.525 175.818L256.927 172.506H229.547L230.949 175.818C231.053 176.099 231.228 176.341 231.452 176.517C231.676 176.693 231.941 176.795 232.215 176.811Z" fill="#263238"/>
<path opacity="0.4" d="M232.215 176.811H254.259C254.533 176.795 254.798 176.693 255.022 176.517C255.246 176.341 255.421 176.099 255.525 175.818L256.927 172.506H229.547L230.949 175.818C231.053 176.099 231.228 176.341 231.452 176.517C231.676 176.693 231.941 176.795 232.215 176.811Z" fill="white"/>
<path d="M229.914 174.095H256.552C257.343 174.095 257.984 173.387 257.984 172.514V172.158C257.984 171.284 257.343 170.576 256.552 170.576H229.914C229.124 170.576 228.483 171.284 228.483 172.158V172.514C228.483 173.387 229.124 174.095 229.914 174.095Z" fill="#263238"/>
<path opacity="0.1" d="M229.914 174.095H256.552C257.343 174.095 257.984 173.387 257.984 172.514V172.158C257.984 171.284 257.343 170.576 256.552 170.576H229.914C229.124 170.576 228.483 171.284 228.483 172.158V172.514C228.483 173.387 229.124 174.095 229.914 174.095Z" fill="white"/>
<path d="M236.24 204.947H258.276C258.552 204.932 258.818 204.829 259.043 204.651C259.267 204.474 259.441 204.228 259.543 203.945L260.944 200.674H233.572L234.966 203.945C235.069 204.229 235.244 204.475 235.47 204.652C235.696 204.83 235.963 204.932 236.24 204.947Z" fill="#263238"/>
<path opacity="0.4" d="M236.24 204.947H258.276C258.552 204.932 258.818 204.829 259.043 204.651C259.267 204.474 259.441 204.228 259.543 203.945L260.944 200.674H233.572L234.966 203.945C235.069 204.229 235.244 204.475 235.47 204.652C235.696 204.83 235.963 204.932 236.24 204.947Z" fill="white"/>
<path d="M233.939 202.231H260.577C261.368 202.231 262.008 201.523 262.008 200.649V200.293C262.008 199.42 261.368 198.712 260.577 198.712H233.939C233.148 198.712 232.508 199.42 232.508 200.293V200.649C232.508 201.523 233.148 202.231 233.939 202.231Z" fill="#263238"/>
<path opacity="0.1" d="M233.939 202.231H260.577C261.368 202.231 262.008 201.523 262.008 200.649V200.293C262.008 199.42 261.368 198.712 260.577 198.712H233.939C233.148 198.712 232.508 199.42 232.508 200.293V200.649C232.508 201.523 233.148 202.231 233.939 202.231Z" fill="white"/>
<path d="M240.258 242.182H262.331C262.607 242.169 262.874 242.068 263.1 241.892C263.326 241.716 263.502 241.471 263.605 241.188L264.999 237.876H237.597L238.998 241.188C239.1 241.47 239.273 241.713 239.496 241.889C239.719 242.065 239.984 242.167 240.258 242.182Z" fill="#263238"/>
<path opacity="0.4" d="M240.258 242.182H262.331C262.607 242.169 262.874 242.068 263.1 241.892C263.326 241.716 263.502 241.471 263.605 241.188L264.999 237.876H237.597L238.998 241.188C239.1 241.47 239.273 241.713 239.496 241.889C239.719 242.065 239.984 242.167 240.258 242.182Z" fill="white"/>
<path d="M237.956 239.474H264.594C265.385 239.474 266.026 238.766 266.026 237.893V237.537C266.026 236.663 265.385 235.955 264.594 235.955H237.956C237.166 235.955 236.525 236.663 236.525 237.537V237.893C236.525 238.766 237.166 239.474 237.956 239.474Z" fill="#263238"/>
<path opacity="0.1" d="M237.956 239.474H264.594C265.385 239.474 266.026 238.766 266.026 237.893V237.537C266.026 236.663 265.385 235.955 264.594 235.955H237.956C237.166 235.955 236.525 236.663 236.525 237.537V237.893C236.525 238.766 237.166 239.474 237.956 239.474Z" fill="white"/>
<path d="M244.275 279.425H266.318C266.593 279.411 266.859 279.31 267.083 279.134C267.308 278.957 267.482 278.714 267.585 278.432L268.987 275.12H241.607L243.008 278.432C243.111 278.714 243.285 278.957 243.51 279.134C243.734 279.31 244 279.411 244.275 279.425Z" fill="#263238"/>
<path opacity="0.4" d="M244.275 279.425H266.318C266.593 279.411 266.859 279.31 267.083 279.134C267.308 278.957 267.482 278.714 267.585 278.432L268.987 275.12H241.607L243.008 278.432C243.111 278.714 243.285 278.957 243.51 279.134C243.734 279.31 244 279.411 244.275 279.425Z" fill="white"/>
<path d="M241.974 276.718H268.612C269.402 276.718 270.043 276.01 270.043 275.136V274.78C270.043 273.907 269.402 273.199 268.612 273.199H241.974C241.183 273.199 240.542 273.907 240.542 274.78V275.136C240.542 276.01 241.183 276.718 241.974 276.718Z" fill="#263238"/>
<path opacity="0.1" d="M241.974 276.718H268.612C269.402 276.718 270.043 276.01 270.043 275.136V274.78C270.043 273.907 269.402 273.199 268.612 273.199H241.974C241.183 273.199 240.542 273.907 240.542 274.78V275.136C240.542 276.01 241.183 276.718 241.974 276.718Z" fill="white"/>
<path d="M248.3 316.669H270.336C270.611 316.655 270.877 316.554 271.102 316.378C271.326 316.202 271.5 315.958 271.602 315.675L273.004 312.363H245.624L247.026 315.675C247.129 315.958 247.304 316.203 247.53 316.379C247.756 316.555 248.024 316.656 248.3 316.669Z" fill="#263238"/>
<path opacity="0.4" d="M248.3 316.669H270.336C270.611 316.655 270.877 316.554 271.102 316.378C271.326 316.202 271.5 315.958 271.602 315.675L273.004 312.363H245.624L247.026 315.675C247.129 315.958 247.304 316.203 247.53 316.379C247.756 316.555 248.024 316.656 248.3 316.669Z" fill="white"/>
<path d="M245.991 313.961H272.629C273.42 313.961 274.061 313.253 274.061 312.38V312.023C274.061 311.15 273.42 310.442 272.629 310.442H245.991C245.201 310.442 244.56 311.15 244.56 312.023V312.38C244.56 313.253 245.201 313.961 245.991 313.961Z" fill="#263238"/>
<path opacity="0.1" d="M245.991 313.961H272.629C273.42 313.961 274.061 313.253 274.061 312.38V312.023C274.061 311.15 273.42 310.442 272.629 310.442H245.991C245.201 310.442 244.56 311.15 244.56 312.023V312.38C244.56 313.253 245.201 313.961 245.991 313.961Z" fill="white"/>
<path d="M273.476 344.456H280.409L257.864 147.641H250.931L273.476 344.456Z" fill="#263238"/>
<path opacity="0.7" d="M273.476 344.456H280.409L257.864 147.641H250.931L273.476 344.456Z" fill="white"/>
<path d="M200.691 344.456H193.758L216.296 147.641H223.229L200.691 344.456Z" fill="#263238"/>
<path opacity="0.4" d="M200.691 344.456H193.758L216.296 147.641H223.229L200.691 344.456Z" fill="white"/>
<path d="M241.944 176.811H219.908C219.632 176.796 219.366 176.695 219.14 176.519C218.915 176.343 218.739 176.1 218.634 175.818L217.24 172.506H244.612L243.211 175.818C243.108 176.1 242.934 176.343 242.709 176.519C242.485 176.696 242.219 176.797 241.944 176.811Z" fill="#263238"/>
<path opacity="0.5" d="M241.944 176.811H219.908C219.632 176.796 219.366 176.695 219.14 176.519C218.915 176.343 218.739 176.1 218.634 175.818L217.24 172.506H244.612L243.211 175.818C243.108 176.1 242.934 176.343 242.709 176.519C242.485 176.696 242.219 176.797 241.944 176.811Z" fill="white"/>
<path d="M244.245 170.585H217.607C216.817 170.585 216.176 171.293 216.176 172.166V172.522C216.176 173.395 216.817 174.104 217.607 174.104H244.245C245.036 174.104 245.677 173.395 245.677 172.522V172.166C245.677 171.293 245.036 170.585 244.245 170.585Z" fill="#263238"/>
<path opacity="0.2" d="M244.245 170.585H217.607C216.817 170.585 216.176 171.293 216.176 172.166V172.522C216.176 173.395 216.817 174.104 217.607 174.104H244.245C245.036 174.104 245.677 173.395 245.677 172.522V172.166C245.677 171.293 245.036 170.585 244.245 170.585Z" fill="white"/>
<path d="M237.927 204.947H215.861C215.585 204.931 215.319 204.828 215.095 204.65C214.87 204.473 214.697 204.228 214.594 203.945L213.193 200.674H240.595L239.193 203.945C239.091 204.228 238.917 204.473 238.692 204.65C238.468 204.828 238.202 204.931 237.927 204.947Z" fill="#263238"/>
<path opacity="0.5" d="M237.927 204.947H215.861C215.585 204.931 215.319 204.828 215.095 204.65C214.87 204.473 214.697 204.228 214.594 203.945L213.193 200.674H240.595L239.193 203.945C239.091 204.228 238.917 204.473 238.692 204.65C238.468 204.828 238.202 204.931 237.927 204.947Z" fill="white"/>
<path d="M240.228 198.712H213.59C212.799 198.712 212.158 199.42 212.158 200.293V200.649C212.158 201.523 212.799 202.231 213.59 202.231H240.228C241.018 202.231 241.659 201.523 241.659 200.649V200.293C241.659 199.42 241.018 198.712 240.228 198.712Z" fill="#263238"/>
<path opacity="0.2" d="M240.228 198.712H213.59C212.799 198.712 212.158 199.42 212.158 200.293V200.649C212.158 201.523 212.799 202.231 213.59 202.231H240.228C241.018 202.231 241.659 201.523 241.659 200.649V200.293C241.659 199.42 241.018 198.712 240.228 198.712Z" fill="white"/>
<path d="M233.902 242.182H211.866C211.591 242.168 211.325 242.067 211.1 241.891C210.875 241.715 210.701 241.471 210.599 241.188L209.198 237.876H236.57L235.176 241.188C235.072 241.471 234.897 241.716 234.671 241.892C234.445 242.068 234.178 242.169 233.902 242.182Z" fill="#263238"/>
<path opacity="0.5" d="M233.902 242.182H211.866C211.591 242.168 211.325 242.067 211.1 241.891C210.875 241.715 210.701 241.471 210.599 241.188L209.198 237.876H236.57L235.176 241.188C235.072 241.471 234.897 241.716 234.671 241.892C234.445 242.068 234.178 242.169 233.902 242.182Z" fill="white"/>
<path d="M236.203 235.955H209.565C208.774 235.955 208.133 236.663 208.133 237.537V237.893C208.133 238.766 208.774 239.474 209.565 239.474H236.203C236.993 239.474 237.634 238.766 237.634 237.893V237.537C237.634 236.663 236.993 235.955 236.203 235.955Z" fill="#263238"/>
<path opacity="0.2" d="M236.203 235.955H209.565C208.774 235.955 208.133 236.663 208.133 237.537V237.893C208.133 238.766 208.774 239.474 209.565 239.474H236.203C236.993 239.474 237.634 238.766 237.634 237.893V237.537C237.634 236.663 236.993 235.955 236.203 235.955Z" fill="white"/>
<path d="M229.884 279.425H207.848C207.572 279.411 207.306 279.311 207.08 279.134C206.854 278.958 206.679 278.714 206.574 278.432L205.18 275.12H232.553L231.151 278.432C231.049 278.714 230.875 278.959 230.65 279.135C230.426 279.311 230.16 279.412 229.884 279.425Z" fill="#263238"/>
<path opacity="0.5" d="M229.884 279.425H207.848C207.572 279.411 207.306 279.311 207.08 279.134C206.854 278.958 206.679 278.714 206.574 278.432L205.18 275.12H232.553L231.151 278.432C231.049 278.714 230.875 278.959 230.65 279.135C230.426 279.311 230.16 279.412 229.884 279.425Z" fill="white"/>
<path d="M232.185 273.199H205.547C204.757 273.199 204.116 273.907 204.116 274.78V275.136C204.116 276.01 204.757 276.718 205.547 276.718H232.185C232.976 276.718 233.617 276.01 233.617 275.136V274.78C233.617 273.907 232.976 273.199 232.185 273.199Z" fill="#263238"/>
<path opacity="0.2" d="M232.185 273.199H205.547C204.757 273.199 204.116 273.907 204.116 274.78V275.136C204.116 276.01 204.757 276.718 205.547 276.718H232.185C232.976 276.718 233.617 276.01 233.617 275.136V274.78C233.617 273.907 232.976 273.199 232.185 273.199Z" fill="white"/>
<path d="M225.867 316.669H203.824C203.548 316.654 203.283 316.553 203.058 316.377C202.834 316.201 202.66 315.957 202.557 315.675L201.155 312.363H228.535L227.134 315.675C227.031 315.958 226.857 316.202 226.633 316.378C226.408 316.554 226.142 316.655 225.867 316.669Z" fill="#263238"/>
<path opacity="0.5" d="M225.867 316.669H203.824C203.548 316.654 203.283 316.553 203.058 316.377C202.834 316.201 202.66 315.957 202.557 315.675L201.155 312.363H228.535L227.134 315.675C227.031 315.958 226.857 316.202 226.633 316.378C226.408 316.554 226.142 316.655 225.867 316.669Z" fill="white"/>
<path d="M228.168 310.442H201.53C200.739 310.442 200.098 311.15 200.098 312.023V312.379C200.098 313.253 200.739 313.961 201.53 313.961H228.168C228.958 313.961 229.599 313.253 229.599 312.379V312.023C229.599 311.15 228.958 310.442 228.168 310.442Z" fill="#263238"/>
<path opacity="0.2" d="M228.168 310.442H201.53C200.739 310.442 200.098 311.15 200.098 312.023V312.379C200.098 313.253 200.739 313.961 201.53 313.961H228.168C228.958 313.961 229.599 313.253 229.599 312.379V312.023C229.599 311.15 228.958 310.442 228.168 310.442Z" fill="white"/>
<path d="M227.448 344.456H220.515L243.061 147.641H249.994L227.448 344.456Z" fill="#263238"/>
<path opacity="0.7" d="M227.448 344.456H220.515L243.061 147.641H249.994L227.448 344.456Z" fill="white"/>
<path d="M258.973 148.643H215.036C214.762 148.626 214.497 148.524 214.273 148.348C214.049 148.172 213.874 147.93 213.77 147.649L212.368 144.337H261.641L260.247 147.649C260.138 147.928 259.961 148.168 259.736 148.343C259.512 148.518 259.247 148.622 258.973 148.643Z" fill="#263238"/>
<path opacity="0.5" d="M258.973 148.643H215.036C214.762 148.626 214.497 148.524 214.273 148.348C214.049 148.172 213.874 147.93 213.77 147.649L212.368 144.337H261.641L260.247 147.649C260.138 147.928 259.961 148.168 259.736 148.343C259.512 148.518 259.247 148.622 258.973 148.643Z" fill="white"/>
<path d="M261.274 142.416H212.743C211.952 142.416 211.311 143.124 211.311 143.997V144.354C211.311 145.227 211.952 145.935 212.743 145.935H261.274C262.065 145.935 262.706 145.227 262.706 144.354V143.997C262.706 143.124 262.065 142.416 261.274 142.416Z" fill="#263238"/>
<path opacity="0.2" d="M261.274 142.416H212.743C211.952 142.416 211.311 143.124 211.311 143.997V144.354C211.311 145.227 211.952 145.935 212.743 145.935H261.274C262.065 145.935 262.706 145.227 262.706 144.354V143.997C262.706 143.124 262.065 142.416 261.274 142.416Z" fill="white"/>
<path d="M262.046 147.823L256.282 143.335L253.584 149.454C253.584 149.454 257.212 153.213 260.914 151.259L262.046 147.823Z" fill="#EBB376"/>
<path d="M251.305 142.648L250.286 147.74L253.584 149.454L256.282 143.335L251.305 142.648Z" fill="#EBB376"/>
<path d="M301.448 133.664C300.316 135.593 299.162 137.44 297.955 139.245C297.048 140.578 296.119 141.894 295.145 143.186C294.852 143.583 294.553 143.973 294.253 144.362C293.661 145.115 293.061 145.869 292.431 146.614C291.682 147.541 290.835 148.452 289.958 149.346L289.456 149.843C288.801 150.512 288.113 151.14 287.395 151.723C286.326 152.608 285.153 153.329 283.909 153.867C283.541 154.025 283.163 154.153 282.778 154.248C282.41 154.347 282.096 154.397 281.758 154.463C281.164 154.553 280.566 154.608 279.967 154.629C278.835 154.67 277.778 154.629 276.736 154.571C274.668 154.447 272.674 154.14 270.703 153.818C268.185 153.379 265.711 152.832 263.26 152.162C262.353 151.93 261.454 151.673 260.554 151.408L259.123 150.969C258.666 150.822 258.269 150.507 257.997 150.076C257.724 149.646 257.593 149.125 257.624 148.601C257.634 148.433 257.659 148.267 257.699 148.104C257.806 147.674 258.025 147.288 258.329 146.994C258.633 146.7 259.008 146.51 259.408 146.448C259.535 146.432 259.663 146.432 259.79 146.448H259.827H260.352C261.484 146.49 262.601 146.539 263.747 146.573C266.273 146.672 268.792 146.746 271.243 146.788C273.124 146.788 274.99 146.788 276.796 146.722C277.696 146.68 278.573 146.597 279.367 146.473C279.962 146.427 280.545 146.267 281.091 146.001C281.612 145.671 282.1 145.279 282.545 144.834C282.995 144.403 283.467 143.923 283.932 143.401C284.067 143.261 284.194 143.112 284.322 142.962C284.584 142.664 284.839 142.35 285.071 142.035C285.716 141.257 286.338 140.445 286.96 139.609C287.237 139.228 287.522 138.847 287.799 138.458C289.148 136.579 290.49 134.6 291.787 132.604C292.671 131.255 293.541 129.888 294.38 128.547L294.425 128.464C294.843 127.789 295.418 127.252 296.089 126.908L299.23 127.057L300.046 127.106C300.132 127.158 300.215 127.216 300.294 127.28C301.2 127.969 301.828 129.021 302.044 130.213C302.259 131.405 302.046 132.643 301.448 133.664Z" fill="#FFB573"/>
<path d="M299.492 139.162C298.076 141.421 296.489 143.543 294.747 145.504C294.283 146.034 293.788 146.581 293.248 147.16L292.409 146.639L285.056 142.068L284.374 141.646C284.374 141.646 284.854 140.818 285.566 139.667C286.458 138.177 287.724 136.049 288.901 134.045C289.816 132.472 290.67 130.973 291.232 129.905C291.857 128.722 292.681 127.682 293.661 126.841L296.074 126.932L299.215 127.081L300.032 127.131L302.123 127.247C303.09 129.714 302.88 133.631 299.492 139.162Z" fill="#536675"/>
<path opacity="0.7" d="M299.492 139.162C298.076 141.421 296.489 143.543 294.747 145.504C294.283 146.034 293.788 146.581 293.248 147.16L292.409 146.639L285.056 142.068L284.374 141.646C284.374 141.646 284.854 140.818 285.566 139.667C286.458 138.177 287.724 136.049 288.901 134.045C289.816 132.472 290.67 130.973 291.232 129.905C291.857 128.722 292.681 127.682 293.661 126.841L296.074 126.932L299.215 127.081L300.032 127.131L302.123 127.247C303.09 129.714 302.88 133.631 299.492 139.162Z" fill="white"/>
<path d="M189.883 344.315C189.886 344.362 189.886 344.409 189.883 344.456C189.886 344.478 189.886 344.5 189.883 344.522C189.874 344.565 189.861 344.606 189.845 344.646C189.823 344.702 189.796 344.755 189.763 344.804C189.73 344.863 189.693 344.918 189.65 344.969C189.296 345.35 188.879 345.651 188.421 345.855L188.054 346.029C187.694 346.195 187.304 346.352 186.832 346.509C186.547 346.609 186.248 346.7 185.925 346.799C180.679 348.364 170.598 349.623 157.923 350.318L156.424 350.401L153.966 350.517L151.44 350.616L149.694 350.682C148.307 350.724 146.905 350.765 145.481 350.79H144.964H143.997H143.06C141.749 350.79 140.422 350.79 139.088 350.84H135.468C131.091 350.84 126.826 350.782 122.726 350.658L120.912 350.591C120.387 350.591 119.863 350.591 119.346 350.542L116.932 350.451L113.792 350.302L112.975 350.252L110.884 350.136C107.443 349.921 104.213 349.672 101.245 349.374C94.1394 348.679 88.503 347.776 85.0178 346.733L84.718 346.642L84.3882 346.534C83.826 346.352 83.3388 346.162 82.8891 345.979C82.7317 345.905 82.5818 345.839 82.4469 345.764C82.2229 345.648 82.0052 345.518 81.7948 345.375C81.7233 345.329 81.6555 345.277 81.5925 345.218L81.4276 345.077L81.2702 344.903C81.2282 344.855 81.1905 344.802 81.1577 344.746C81.1025 344.658 81.0619 344.56 81.0378 344.456V344.365C81.0341 344.326 81.0341 344.287 81.0378 344.249C81.0378 341.55 94.4017 339.231 113.544 338.213L115.081 338.13L117.15 338.039L120.328 337.915L122.044 337.857L126.076 337.749H126.294H127.455H128.242C129.427 337.749 130.618 337.749 131.825 337.708H132.185C133.272 337.708 134.366 337.708 135.468 337.708C139.905 337.708 144.215 337.774 148.344 337.89L151.343 337.997L152.617 338.047H152.744L154.138 338.105L155.053 338.147L157.421 338.262L159.67 338.387C163.957 338.643 167.914 338.966 171.482 339.347C182.755 340.581 189.883 342.344 189.883 344.315Z" fill="#263238"/>
<path opacity="0.4" d="M81.0228 344.315C81.0228 341.616 94.3867 339.297 113.529 338.279L115.066 338.196L117.134 338.105C120.005 337.981 122.988 337.89 126.061 337.815H127.44H128.227C130.588 337.774 133.002 337.757 135.453 337.757C139.89 337.757 144.199 337.824 148.329 337.939L151.327 338.047C158.86 338.32 165.696 338.792 171.452 339.405C182.747 340.614 189.875 342.378 189.875 344.373C189.875 345.251 188.458 346.095 185.888 346.857C181.139 345.628 176.314 344.798 171.452 344.373C165.696 343.76 158.86 343.288 151.327 343.015L148.329 342.907C144.199 342.792 139.89 342.725 135.453 342.725C133.002 342.725 130.588 342.725 128.227 342.783H127.418H126.039C122.966 342.858 119.983 342.949 117.112 343.073L115.043 343.164L113.507 343.247C100.593 343.934 90.3168 345.209 85.0252 346.799C82.4469 346.029 81.0228 345.201 81.0228 344.315Z" fill="white"/>
<path d="M130.873 341.26C130.461 341.806 130.079 342.278 129.696 342.734C129.502 342.957 129.314 343.181 129.112 343.404C128.752 343.81 128.4 344.232 128.032 344.597C127.793 344.862 127.545 345.118 127.283 345.375C126.013 346.673 124.669 347.879 123.258 348.985L123.018 349.167C122.808 349.333 122.591 349.49 122.366 349.656C121.894 350.004 121.407 350.343 120.867 350.658C120.342 350.658 119.818 350.658 119.301 350.608L116.887 350.517L113.747 350.368L112.93 350.318L110.839 350.202C107.398 349.987 104.168 349.739 101.2 349.44L102.369 349.026C105.367 347.95 108.365 346.94 111.288 345.88C112.038 345.607 112.735 345.342 113.402 345.052C113.977 344.842 114.529 344.564 115.051 344.224C115.381 344.009 115.725 343.769 116.07 343.512C116.25 343.379 116.437 343.239 116.625 343.081C117.165 342.659 117.704 342.187 118.236 341.699C119.316 340.722 120.372 339.645 121.422 338.527L121.984 337.915C122.321 337.559 122.651 337.203 122.973 336.83L124.472 335.174L124.562 335.066C125.014 334.547 125.569 334.15 126.182 333.906C126.796 333.662 127.452 333.577 128.1 333.659C129.045 333.778 129.926 334.249 130.597 334.993C131.268 335.738 131.691 336.713 131.795 337.757C131.861 338.38 131.814 339.01 131.655 339.612C131.497 340.213 131.231 340.774 130.873 341.26Z" fill="#FFB573"/>
<path d="M129.194 331.754C125.012 331.647 115.703 343.131 115.703 343.131L123.386 350.649C123.386 350.649 130.244 347.337 131.923 341.914C133.601 336.49 129.194 331.754 129.194 331.754Z" fill="#536675"/>
<path opacity="0.7" d="M131.915 341.914C131.118 344.113 129.788 346.027 128.07 347.445C126.627 348.719 125.049 349.795 123.371 350.649L121.309 348.629L115.688 343.131C115.688 343.131 124.989 331.647 129.179 331.754C129.194 331.754 133.616 336.457 131.915 341.914Z" fill="white"/>
<path opacity="0.1" d="M128.092 347.445C126.649 348.719 125.071 349.795 123.393 350.649L121.332 348.629C122.427 345.089 124.385 341.951 126.991 339.562C127.905 341.45 128.205 345.466 128.092 347.445Z" fill="black"/>
<path d="M158.081 336.598C158.036 336.706 157.991 336.805 157.953 336.913C157.833 337.203 157.721 337.492 157.608 337.79C157.541 337.944 157.481 338.102 157.429 338.262C157.413 338.294 157.4 338.327 157.391 338.362C157.336 338.485 157.288 338.612 157.249 338.743C157.121 339.074 157.001 339.413 156.881 339.761C156.761 340.109 156.589 340.631 156.447 341.069C156.447 341.069 156.447 341.111 156.447 341.127C156.342 341.442 156.244 341.757 156.147 342.08C156.049 342.402 155.944 342.725 155.855 343.048C155.851 343.081 155.851 343.115 155.855 343.148C155.765 343.446 155.675 343.744 155.592 344.042C155.42 344.671 155.247 345.3 155.083 345.946L155.038 346.12C154.678 347.528 154.341 348.96 154.026 350.401C154.022 350.431 154.022 350.462 154.026 350.492L151.5 350.591L149.753 350.658C148.367 350.699 146.965 350.74 145.541 350.765H145.024H144.057H143.12C141.809 350.765 140.482 350.765 139.148 350.815H135.528C131.15 350.815 126.886 350.757 122.786 350.633L122.898 350.02C122.898 349.888 122.951 349.763 122.981 349.639C123.011 349.515 123.026 349.391 123.056 349.267C123.071 349.207 123.083 349.146 123.093 349.084C123.428 347.428 123.778 345.919 124.143 344.555C124.277 344.075 124.397 343.62 124.525 343.164C124.57 343.023 124.607 342.883 124.652 342.742C124.75 342.402 124.847 342.08 124.944 341.765L125.102 341.26C125.184 341.003 125.267 340.746 125.349 340.506C125.432 340.266 125.537 339.935 125.627 339.678L125.874 338.983L126.324 337.782C126.668 336.871 127.006 336.077 127.32 335.373C127.38 335.257 127.433 335.133 127.485 335.017L127.8 334.346L128.167 333.609C128.19 333.572 128.21 333.534 128.227 333.493C128.355 333.236 128.482 333.005 128.595 332.806L128.887 332.293L129.239 331.73C131.464 331.495 133.699 331.414 135.932 331.489C136.405 331.489 136.884 331.531 137.371 331.564C137.859 331.597 138.301 331.647 138.811 331.713C139.882 331.845 141.059 332.028 142.311 332.251L144.664 332.698C145.451 332.856 146.231 333.013 146.98 333.179L147.378 333.27C147.97 333.394 148.547 333.526 149.079 333.65C149.446 333.733 149.828 333.824 150.173 333.924C150.361 333.973 150.54 334.015 150.72 334.073L151.267 334.222C151.95 334.412 152.624 334.619 153.261 334.818L153.883 335.025L155.045 335.422L156.064 335.787C157.226 336.209 157.998 336.524 158.111 336.565L158.081 336.598Z" fill="#536675"/>
<path opacity="0.7" d="M158.088 336.598C158.043 336.706 157.998 336.805 157.961 336.913C157.841 337.203 157.721 337.492 157.616 337.79C157.546 337.945 157.486 338.102 157.436 338.262C157.433 338.295 157.433 338.329 157.436 338.362C157.381 338.485 157.333 338.612 157.294 338.743C157.166 339.074 157.046 339.413 156.926 339.761C156.807 340.109 156.627 340.631 156.492 341.069C156.492 341.069 156.492 341.111 156.492 341.127C156.387 341.442 156.289 341.757 156.192 342.08C156.094 342.402 155.99 342.725 155.9 343.048V343.106C155.81 343.404 155.72 343.702 155.637 344C155.465 344.63 155.293 345.259 155.128 345.905L155.083 346.079C154.723 347.486 154.386 348.919 154.071 350.36C154.067 350.39 154.067 350.42 154.071 350.451L151.545 350.55L149.799 350.616C148.412 350.658 147.01 350.699 145.586 350.724H145.069H144.102H143.165C141.854 350.724 140.527 350.724 139.193 350.774H135.573C131.196 350.774 126.931 350.716 122.831 350.591L122.943 349.987C122.996 349.722 123.041 349.474 123.093 349.225C123.108 349.165 123.121 349.104 123.131 349.043C123.466 347.387 123.815 345.877 124.18 344.514C124.315 344.034 124.435 343.578 124.562 343.123C124.607 342.982 124.645 342.841 124.69 342.701C124.787 342.361 124.885 342.038 124.982 341.723L125.139 341.218C125.222 340.962 125.304 340.705 125.387 340.465C125.469 340.225 125.574 339.894 125.664 339.637L125.911 338.941L126.361 337.741C126.706 336.83 127.043 336.035 127.351 335.331C127.41 335.215 127.463 335.091 127.515 334.975L127.83 334.305L128.197 333.568C128.22 333.531 128.24 333.492 128.257 333.452L128.625 332.765L128.917 332.251L129.269 331.688C131.494 331.453 133.729 331.373 135.962 331.448C136.435 331.448 136.914 331.489 137.402 331.523C137.889 331.556 138.331 331.605 138.841 331.672C139.912 331.804 141.089 331.986 142.341 332.21L144.694 332.657C145.481 332.814 146.261 332.972 147.01 333.137L147.408 333.228C148 333.352 148.577 333.485 149.109 333.609C149.476 333.692 149.859 333.783 150.203 333.882C150.391 333.932 150.571 333.973 150.75 334.031L151.298 334.172C151.98 334.363 152.654 334.57 153.291 334.777L153.913 334.984L155.075 335.381L156.094 335.745C157.256 336.168 158.028 336.482 158.141 336.524L158.088 336.598Z" fill="white"/>
<path d="M144.529 321.636C144.529 321.636 144.762 330.446 145.519 331.754C146.276 333.063 149.011 333.667 149.011 333.667C149.011 333.667 142.438 337.277 139.365 336.598C136.292 335.919 134.816 331.489 134.816 331.489C134.816 331.489 136.959 331.58 137.484 331.258C138.009 330.935 137.072 325.097 137.072 325.097L144.529 321.636Z" fill="#EBB376"/>
<path opacity="0.2" d="M137.701 327.291L137.431 327.714C137.267 326.348 137.072 325.097 137.072 325.097L144.522 321.636C144.522 321.636 144.717 328.732 145.271 331.133C142.258 331.481 138.736 329.014 137.701 327.291Z" fill="black"/>
<path d="M141.981 306.84C144.02 308.016 146.935 311.808 143.742 313.075C140.549 314.341 138.481 304.828 141.981 306.84Z" fill="#263238"/>
<path d="M132.919 321.495C134.484 323.605 136.187 325.584 138.016 327.416C139.331 328.646 140.945 329.421 142.656 329.643C148.652 330.471 152.534 323.416 150.113 317.596C149.833 316.929 149.52 316.279 149.176 315.65C146.546 310.864 141.486 305.838 136.48 307.477C135.218 307.891 134.071 308.651 133.147 309.687C132.224 310.723 131.553 312.001 131.197 313.401C130.842 314.801 130.813 316.278 131.114 317.693C131.415 319.109 132.036 320.417 132.919 321.495Z" fill="#EBB376"/>
<path d="M135.385 321.098L135.663 322.092C136.189 324.003 136.994 325.807 138.046 327.432C139.361 328.662 140.975 329.437 142.686 329.66C148.682 330.488 152.564 323.433 150.143 317.612C149.863 316.945 149.55 316.296 149.206 315.666C149.206 315.666 149.656 318.001 149.266 319.086C149.266 319.086 147.018 318.448 145.909 319.467C145.909 319.467 143.525 318.746 141.501 321.537C140.576 322.205 139.48 322.524 138.377 322.444C137.274 322.365 136.224 321.893 135.385 321.098Z" fill="#263238"/>
<path opacity="0.5" d="M135.385 321.098L135.663 322.092C136.189 324.003 136.994 325.807 138.046 327.432C139.361 328.662 140.975 329.437 142.686 329.66C148.682 330.488 152.564 323.433 150.143 317.612C149.863 316.945 149.55 316.296 149.206 315.666C149.206 315.666 149.656 318.001 149.266 319.086C149.266 319.086 147.018 318.448 145.909 319.467C145.909 319.467 143.525 318.746 141.501 321.537C140.576 322.205 139.48 322.524 138.377 322.444C137.274 322.365 136.224 321.893 135.385 321.098Z" fill="white"/>
<path d="M126.668 318.399C123.948 315.873 126.526 312.222 129.374 310.947C129.682 310.812 129.944 310.575 130.124 310.268L133.504 316.006C133.197 316.163 132.889 316.32 132.597 316.445C132.597 316.445 136.547 320.303 136.165 324.145C130.648 325.867 125.327 322.729 126.668 318.399Z" fill="#263238"/>
<path d="M134.111 327.06C134.69 327.494 135.341 327.796 136.027 327.948C136.714 328.101 137.42 328.1 138.106 327.946C138.238 327.918 138.369 327.879 138.496 327.83C139.635 326.646 136.247 322.481 136.09 322.265C135.727 322.144 135.345 322.11 134.97 322.167C134.595 322.224 134.235 322.371 133.916 322.597C133.594 322.859 133.335 323.205 133.163 323.605C132.991 324.004 132.912 324.444 132.931 324.886C132.95 325.328 133.068 325.757 133.274 326.136C133.48 326.516 133.767 326.833 134.111 327.06Z" fill="#EBB376"/>
<path d="M140.579 316.958C140.857 317.355 141.277 317.513 141.516 317.306C141.756 317.099 141.711 316.602 141.426 316.204C141.142 315.807 140.722 315.65 140.49 315.857C140.257 316.064 140.295 316.561 140.579 316.958Z" fill="#263238"/>
<path d="M144.657 313.373C144.934 313.77 145.354 313.928 145.594 313.721C145.833 313.514 145.789 313.025 145.504 312.619C145.219 312.214 144.799 312.064 144.567 312.28C144.334 312.495 144.349 312.984 144.657 313.373Z" fill="#263238"/>
<path d="M143.48 314.714C144.76 315.501 146.132 316.089 147.557 316.461C147.378 317.637 146.058 318.291 146.058 318.291L143.48 314.714Z" fill="#D58745"/>
<path d="M138.968 313.878C138.926 313.902 138.891 313.94 138.867 313.985C138.844 314.03 138.832 314.082 138.833 314.135C138.839 314.51 138.765 314.882 138.616 315.22C138.468 315.558 138.249 315.853 137.979 316.08C137.921 316.126 137.88 316.193 137.865 316.27C137.85 316.346 137.861 316.426 137.896 316.494C137.915 316.528 137.94 316.556 137.969 316.579C137.998 316.602 138.031 316.618 138.066 316.626C138.101 316.635 138.137 316.635 138.172 316.628C138.207 316.621 138.241 316.607 138.271 316.585C138.62 316.299 138.902 315.923 139.093 315.491C139.283 315.059 139.377 314.582 139.365 314.101C139.365 314.024 139.338 313.949 139.289 313.893C139.24 313.838 139.173 313.805 139.103 313.803C139.052 313.813 139.005 313.839 138.968 313.878Z" fill="#263238"/>
<path d="M145.294 310.135C145.337 310.1 145.368 310.051 145.384 309.995C145.408 309.921 145.405 309.84 145.376 309.768C145.346 309.697 145.293 309.642 145.226 309.614C144.828 309.442 144.399 309.381 143.974 309.434C143.55 309.488 143.143 309.654 142.79 309.92C142.744 309.971 142.715 310.038 142.71 310.111C142.705 310.183 142.724 310.255 142.764 310.312C142.803 310.37 142.861 310.41 142.925 310.425C142.989 310.439 143.056 310.428 143.113 310.392C143.395 310.186 143.719 310.059 144.056 310.021C144.392 309.984 144.732 310.037 145.047 310.177C145.088 310.193 145.132 310.198 145.175 310.191C145.218 310.183 145.259 310.164 145.294 310.135Z" fill="#263238"/>
<path d="M146.036 323.748C146.182 323.686 146.325 323.614 146.463 323.532L146.83 320.27C146.83 320.27 146.651 320.27 146.373 320.27C145.444 320.27 143.375 320.502 142.821 321.678C142.76 321.813 142.712 321.954 142.678 322.1C142.538 322.626 142.573 323.189 142.776 323.69C143.113 324.385 144.012 324.749 146.036 323.748Z" fill="#263238"/>
<path d="M142.678 322.092L146.283 320.651L146.373 320.262C145.444 320.262 143.375 320.494 142.82 321.669C142.76 321.804 142.712 321.946 142.678 322.092Z" fill="white"/>
<path d="M146.036 323.748C145.406 322.588 143.727 323.185 142.775 323.698C143.113 324.385 144.012 324.749 146.036 323.748Z" fill="#DE5753"/>
<path d="M126.668 318.399C125.559 317.455 123.94 314.913 126.114 312.263C128.287 309.614 130.858 308.305 129.644 306.384C128.43 304.463 130.581 302.832 132.095 304.083C132.095 304.083 135.655 297.649 138.188 302.592C138.188 302.592 140.669 300.704 142.191 302.733C143.712 304.762 144.027 306.931 142.026 307.701C140.025 308.471 139.837 308.711 140.182 309.995C140.527 311.278 138.788 312.338 138.788 312.338C138.788 312.338 139.867 311.576 139.253 310.682C139.144 311.248 138.889 311.768 138.517 312.177C138.146 312.585 137.675 312.866 137.162 312.984C135.22 313.654 136.12 315.741 136.12 315.741C136.12 315.741 135.078 316.188 134.853 314.549C134.853 314.549 134.044 318.208 131.855 319.119C129.666 320.03 128.317 319.815 126.668 318.399Z" fill="#263238"/>
<path opacity="0.1" d="M154.978 346.145C154.618 347.553 154.281 348.985 153.966 350.426C153.962 350.456 153.962 350.487 153.966 350.517L151.44 350.616L149.694 350.682C148.307 350.724 146.905 350.765 145.481 350.79H144.964H143.997H143.06C143.969 348.903 145.25 347.264 146.808 345.996C147.085 345.763 147.376 345.55 147.677 345.358C148.301 344.98 148.977 344.72 149.679 344.588C151.561 344.323 153.463 344.882 154.978 346.145Z" fill="black"/>
<path d="M160.007 343.404C159.969 344.215 159.739 345 159.34 345.681C158.388 347.337 157.421 348.877 156.409 350.401L153.951 350.517L151.425 350.616L149.679 350.682C148.292 350.724 146.89 350.765 145.466 350.79C145.549 350.691 145.616 350.591 145.691 350.492C147.04 348.612 148.382 346.634 149.679 344.638C150.046 344.083 150.428 343.52 150.758 342.982C151.275 342.154 151.77 341.392 152.257 340.606L152.309 340.523C152.841 339.673 153.613 339.043 154.504 338.73C155.395 338.416 156.355 338.439 157.234 338.792C157.571 338.928 157.891 339.112 158.186 339.339C158.778 339.789 159.256 340.398 159.575 341.11C159.894 341.821 160.042 342.611 160.007 343.404Z" fill="#FFB573"/>
<path d="M160.434 343.429C160.034 345.897 159.168 348.244 157.893 350.318L156.394 350.401L153.936 350.517L151.41 350.616L149.663 350.682C148.277 350.724 146.875 350.765 145.451 350.79H144.934H143.967C144.799 349.399 145.826 347.66 146.793 346.013C147.452 344.87 148.082 343.777 148.592 342.85L149.124 341.881C149.96 340.285 151.159 338.958 152.602 338.031C154.258 336.992 156.148 336.492 158.051 336.59C158.69 337.048 159.228 337.659 159.625 338.378C160.431 339.902 160.718 341.693 160.434 343.429Z" fill="#536675"/>
<path opacity="0.7" d="M160.434 343.429C160.034 345.897 159.168 348.244 157.893 350.318L156.394 350.401L153.936 350.517L151.41 350.616L149.663 350.682C148.277 350.724 146.875 350.765 145.451 350.79H144.934H143.967C144.799 349.399 145.826 347.66 146.793 346.013C147.452 344.87 148.082 343.777 148.592 342.85L149.124 341.881C149.96 340.285 151.159 338.958 152.602 338.031C154.258 336.992 156.148 336.492 158.051 336.59C158.69 337.048 159.228 337.659 159.625 338.378C160.431 339.902 160.718 341.693 160.434 343.429Z" fill="white"/>
</g>
<defs>
<clipPath id="clip0_642_267">
<rect width="374.758" height="414" fill="white"/>
</clipPath>
</defs>
</svg>
